<?xml version="1.0" encoding="UTF-8"?>
<svg id="Layer_1" xmlns="http://www.w3.org/2000/svg" version="1.1" viewBox="0 0 24 24">
  <!-- Generator: Adobe Illustrator 29.8.1, SVG Export Plug-In . SVG Version: 2.1.1 Build 2)  -->
  <g id="c">
    <path d="M11.3.9c-.6,0-.7,0-.9.3h-.2c-.5,0-1,0-1.5.4-.5.3-.7.9-.5,1.3,0,0,.2-.3.7-.3s.2,0,.3,0c.8,0,1.4.5,1.3,1.6,0,1.1-.5,2.3-2.1,2.3,0,0-.2,0-.4,0-.8,0-1-.6-1-.6,0,0,.7-.2.7-1s-.5-1.1-1.2-1.3c-.3,0-.5,0-.8,0-.9,0-1.8.4-2.5,1.2-1.5,1.9-1.6,4.8-1.2,7.4s2,5.1,2.1,5.1c0,0,0,0,0,0s0,0,0,0c.7-.7,1.4-1.7,1.7-2.3.3.3.2.8,0,1.4-.2.6-.6,1.4-.7,1.6-.1.2-.3.5,0,.7,0,0,0,0,0,0,.3,0,1.1-.6,1.9-1.7.9-1.3,1.4-2.4,1.4-2.4,0,0,.2.1.2.5,0,.3-.3,1.5-1,2.7s-1.3,1.8-1.4,2c0,0,0,.2,0,.2s1.2,1.1,2.9,2c2,1.1,2.9,1.3,2.9,1.3,0,0,.9-.2,2.9-1.3,1.7-.9,2.9-2,2.9-2s.1,0,0-.2c-.1-.2-.7-.9-1.4-2-.6-1.1-1-2.3-1-2.7s0-.4.2-.5c0,0,.5,1.1,1.4,2.4.9,1.1,1.6,1.7,1.9,1.7s0,0,0,0c.2-.1,0-.4,0-.7-.1-.2-.5-1-.7-1.6-.2-.6-.3-1.1,0-1.4.3.6,1,1.6,1.7,2.3,0,0,0,0,0,0,0,0,0,0,0,0,0,0,1.7-2.5,2.1-5.1.4-2.6.2-5.4-1.2-7.4-.6-.8-1.6-1.2-2.5-1.2s-.5,0-.8,0c-.7.2-1.2.8-1.2,1.3,0,.8.7,1,.7,1,0,0-.2.5-1,.6-.1,0-.3,0-.4,0-.6,0-1.1-.2-1.6-.9-.5-.6-.4-1.9-.5-2.4,0-.4-.1-1.4-.6-1.8-.5-.4-1-.6-1.7-.6h-.1"/>
  </g>
</svg>