<?xml version="1.0" encoding="UTF-8"?><svg id="b" xmlns="http://www.w3.org/2000/svg" width="923.1" height="155.7" viewBox="0 0 923.1 155.7"><g id="c"><path d="M920,44.9c-4.9-9-15.6-15.7-27.2-15.7s-19.1,4.2-19.1,15,11.3,15.3,23,22.8c12.8,8,26.1,17.9,26.1,35s-21.7,36.1-46.9,36.1-21.1-2-33.3-6.6l2-29.8c5.9,11.9,16.8,21.3,33,21.3s21.7-6,21.7-16.5-7.6-14.5-16.8-20c-19.4-11.7-31.8-21.1-31.8-38.1,0-25.5,21.3-33.9,43.3-33.9s20.8,2.3,29,2.3l-3.1,28.2M812.2,71.6c-2.8,4.6-6.3,10.9-8.5,15.6-1.8,8.8-2.8,20.5-2.8,33.5s.9,12.6,3.4,15.1h-32.2c5.7-5.4,8-38.5,7.7-49-4.3-15-10.2-29.3-19.1-46.7-5.7-10.9-12.3-21.3-16.5-23.3,7.2-.6,16.5-1.1,21-1.1,8,0,10.2,1.1,15.1,11.9,7.7,17.4,13.4,30.5,16.8,40.3,8.2-12.8,13.9-21.6,21.3-33.6,1.8-2.9,3.4-6.6,3.4-10.2s-.5-5.9-1.7-7.3h31.9c-6.2,1.4-33.9,45-39.8,54.9M700.1,44.6l-19.1,41.5h31.1l-12-41.5M737.5,136.8c-10.2,0-11-.3-19.1-28.4l-2.9-10.3c-4.9,2.3-13.7,3.4-27.8,3.4h-14.2l-2.5,5.2c-3.5,7.9-8.3,17.1-8.3,23.6s.2,3.2.8,5.4h-84.2c4.8-5.4,6.3-22.8,8.6-54.4l.5-7.6c1.2-18,2.2-31.9,2-41.6-.2-8-.9-13.1-3.1-15.4h32.5c-4.6,3.6-6.3,22.7-8.5,54.3l-.6,7.6c-.8,11.7-2.3,23.8-2.3,35.5s2.2,6.6,7.7,6.6c19.7,0,24.7-.5,33.6-6.5,5.5-10.2,11.9-23,18-36.2l8.3-17.7c7.9-16.7,15.6-33.6,15.6-36.9s-.6-4.5-1.5-6.6h25.9s10.5,38.9,12.8,47.2l5.1,18.8c8.8,31.6,14.3,47,21.8,53.1-6.2.8-15,1.1-18.2,1.1M527.6,138.1c-30.7,0-48.4-25.3-48.4-53.7s21.4-70,62.3-70,18.8,2.3,29.1,2.3l-3.1,30.4c-5.9-10.6-15.4-17.9-28.2-17.9-25.4,0-35.8,27.5-35.8,51.1s14.3,39.6,33.5,39.6,19.4-2.8,34.7-13.4c-6.2,19.7-20.5,31.6-44.1,31.6M421.2,31.2c-2.9,0-6.5,0-9.3.3-.9,5.1-1.7,13.9-2.8,28.1l-.6,8.3c1.6.3,3.6.5,5.4.5,14.8,0,25-9,25-22.5s-6.5-14.7-17.7-14.7M464.2,140.8c-8.8,0-11-1.4-13.9-5.4l-33.3-46.3c-2.6-3.5-4.6-6.5-8.8-6.5h-.8l-.6,8.9c-.8,12.2-1.2,21.9-1.2,29.2.2,8,1.1,12.9,3.2,15h-32.2c4.6-4.2,6.3-18,8.9-54.4l.5-7.6c1.2-17.9,2.2-31.8,2-41.5-.2-8.5-1.1-13.7-3.4-15.6h44c14.3,0,34.1,2.5,34.1,25.8s-12.8,29.6-28.7,34.5c1.5,1.4,4.3,4.9,6,7.1l24.2,32.1c15.1,19.9,16.3,20.8,21.8,23.6-6.8.8-15.9,1.1-21.8,1.1M314,44.6l-19.3,41.5h31.3l-12-41.5M351.5,136.8c-10.2,0-10.9-.3-19.1-28.4l-2.9-10.3c-4.9,2.3-13.7,3.4-27.8,3.4h-14.2l-2.5,5.2c-2.5,5.6-8.5,17-8.3,23.6,0,1.5.2,3.1.8,5.4h-28.5c8.2-8.2,18.5-27.1,32.9-57.8l8.3-17.7c7.6-16,15.6-34.2,15.6-36.9s-.6-4.5-1.5-6.6h25.9s6.8,25.8,12.8,47.2l5.1,18.8c8.8,31.6,14.3,47,21.7,53.1-6.6.8-15,1.1-18.2,1.1M204.7,31c-2.3,0-5.4,0-8.3.3-1.2,8.3-2,16.3-2.6,25.1,0,0-.5,7.6-.5,7.2h3.1c15.1,0,29-5.2,29-19.1s-6.6-13.6-20.7-13.6M200.8,78.2h-8.5l-1.2,17.6c-.6,7.7-.9,14.2-1.1,21.9,0,1.1,3.4,3.4,11.4,3.4,16.7,0,27.6-8.3,27.6-22.1s-12.5-20.8-28.2-20.8M202.7,135.7h-41.6c5.2-4.6,6.6-22.7,8.9-54.4l.5-7.4c1.2-18,2.2-31.9,2-41.6-.2-8.3-1.1-13.7-3.4-15.6h46.6c11.1,0,33.3.6,33.3,23.8s-14.3,25-27.5,28.4c18.5,1.8,32.4,10.8,32.4,29.9,0,20.7-19.4,37-51.2,37"/><path d="M67.3,0c-4.1,0-5,.7-6.3,2.2-.5,0-1.1,0-1.7,0-3.2,0-7.3.5-10.7,2.8-3.4,2.2-5,6.1-3.2,9,0,0,1.2-1.8,5.1-1.8s1.2,0,1.8.1c5.5.6,9.5,3.5,9,11.1-.4,7.6-3.3,16-14.9,16.1,0,0-1.5,0-3.1-.1-5.4-.6-7.1-4-7.1-4,0,0,4.7-1.3,4.7-7.2,0-4-3.6-7.7-8.6-9.2-1.8-.5-3.6-.7-5.4-.7-6,0-12.7,2.5-17.2,8.4C-.5,40.2-1.3,60,1.2,78.4c2.5,18.4,14.2,35.5,14.5,35.9.2.3.5.5.7.5.2,0,.3,0,.4-.2,5-4.9,9.9-11.6,11.9-16.1,2.2,1.8,1.1,5.5-.2,9.5-1.2,4.1-3.9,9.5-5,11.2-1,1.7-2.3,3.7-.5,4.7.2.1.4.2.7.2,2.3,0,7.6-3.9,13.5-11.9,6.6-8.9,10-16.8,10-16.8.5.1,1.3.9,1.2,3.2,0,2.3-2.4,10.7-7,18.6-4.6,7.9-8.9,12.8-9.7,13.9-.5.6,0,1.1.3,1.3.3.2,8.5,7.8,20.3,14.3,14,7.5,20.2,8.8,20.2,8.8,0,0,6.2-1.3,20.2-8.8,11.8-6.4,20-14.1,20.3-14.3.3-.2.8-.6.3-1.3-.8-1.1-5.1-6-9.7-13.9-4.5-7.8-7-16.4-7-18.6,0-2.3.7-3,1.1-3.2,0,0,3.4,8,10.1,16.8,6,7.9,11.2,11.9,13.5,11.9.2,0,.5,0,.7-.2,1.7-1,.4-3-.6-4.7-.9-1.7-3.8-7.1-5-11.2-1.2-4-2.4-7.8-.1-9.5,2.1,4.5,6.8,11.2,11.9,16,.1.1.3.2.4.2.2,0,.5-.2.7-.5.4-.5,12.1-17.5,14.6-36,2.5-18.4,1.7-38.1-8.6-51.7-4.5-5.9-11.3-8.4-17.3-8.4s-3.7.2-5.3.7c-5.1,1.5-8.6,5.3-8.6,9.3,0,5.9,4.7,7.2,4.7,7.2,0,0-1.6,3.3-7.2,4-1,.1-2,.2-3,.2-4.2,0-7.8-1.3-11-6-3.2-4.4-3.1-13.6-3.3-16.7-.1-3.1-.8-10.1-4.1-12.9-3.2-2.9-7.2-3.9-12.1-4.1-.4,0-.7,0-1,0"/></g></svg>