<?xml version="1.0" encoding="UTF-8"?>
<svg id="bcg-logo" xmlns="http://www.w3.org/2000/svg" version="1.1" viewBox="0 0 72 31">
  <!-- Generator: Adobe Illustrator 29.7.1, SVG Export Plug-In . SVG Version: 2.1.1 Build 8)  -->
  <path d="M39,8.1s0,0,0,0h0s0,0,0,0Z"/>
  <path d="M71.9,14.3c0-.2,0-.4,0-.6,0-.2,0-.4,0-.6h-11.3l-3.4,5.4h8.7c-.3.9-.6,1.7-1.1,2.5-.5.7-1,1.4-1.7,1.9h0c-.7.6-1.5,1-2.3,1.3-.8.3-1.7.4-2.6.4h-.1c-1.2,0-2.4-.2-3.4-.7-1.1-.5-2-1.1-2.8-2-.8-.9-1.4-1.8-1.9-2.9-.5-1.1-.7-2.3-.7-3.5h0c0-1.3.2-2.5.7-3.6.5-1.1,1.1-2.1,1.9-2.9.8-.8,1.7-1.5,2.8-2,1.1-.5,2.2-.7,3.4-.7h.1c.5,0,1,0,1.5.1.5,0,1,.2,1.5.4.5.2.9.4,1.3.6.4.2.8.5,1.2.8h0s1.5-2.4,1.5-2.4l1.5-2.4c-.6-.4-1.2-.7-1.8-1.1-.6-.3-1.3-.6-2-.8h-.1c-.7-.2-1.4-.4-2.2-.5-.8-.1-1.5-.2-2.3-.2h-.2c-1,0-2.1,0-3,.3-1,.2-1.9.5-2.8.9h.1c-.9.4-1.7.8-2.5,1.3-.8.5-1.5,1.1-2.1,1.7-.8.8-1.4,1.6-1.9,2.4-.5.8-.9,1.6-1.3,2.3-.3.8-.6,1.5-.8,2.3-.2.7-.4,1.5-.5,2.2-.3,1.4-.6,2.8-1,4.1-.3,1.3-1,2.5-2.1,3.5-.4.4-.9.8-1.3,1.2-.5.3-1,.6-1.5.9h0c-.5.2-1.1.4-1.6.5-.6.1-1.1.2-1.8.2h0c-1.3,0-2.4-.2-3.6-.7-1.1-.5-2.1-1.2-2.9-2-.8-.8-1.5-1.8-1.9-2.9-.5-1.1-.7-2.3-.7-3.6s.2-2.4.7-3.5c.5-1.1,1.1-2.1,1.9-2.9.8-.8,1.8-1.5,2.9-2,1.1-.5,2.3-.8,3.6-.8s1,0,1.5.1c.5,0,1,.2,1.5.3h0c.5.1.9.3,1.3.6.4.2.8.5,1.1.7l1.5-2.4,1.6-2.5c-.6-.4-1.2-.7-1.8-1-.6-.3-1.3-.6-2-.8h0c-.7-.2-1.4-.4-2.2-.5-.8-.1-1.5-.2-2.3-.2h-.1c-1.3,0-2.5.2-3.7.5-1.2.3-2.3.7-3.3,1.3h0c-1,.5-1.9,1.1-2.8,1.9-.9.7-1.6,1.6-2.3,2.5h0c-.3-.8-.7-1.5-1.2-2.2-.5-.7-1.1-1.2-1.8-1.7h0c-.7-.5-1.6-.9-2.5-1.1-.9-.3-1.8-.4-2.8-.4H0v28.2h14.6c.9,0,1.7-.1,2.5-.3.8-.2,1.5-.5,2.2-.9h0c.7-.3,1.3-.8,1.8-1.3.5-.5,1-1.1,1.4-1.7h0c.6.7,1.4,1.4,2.2,1.9.8.6,1.6,1.1,2.5,1.5h.1c.9.4,1.9.7,2.9,1,1,.2,2.1.4,3.2.4h.2c1.3,0,2.5-.2,3.7-.5,1.2-.3,2.3-.7,3.3-1.3h0c1.1-.5,2-1.2,2.9-1.9.9-.8,1.6-1.6,2.3-2.6h0c.6.9,1.4,1.8,2.2,2.5.9.8,1.8,1.4,2.8,2h0c1,.6,2.1,1,3.3,1.3,1.2.3,2.4.5,3.7.5h.1c1,0,1.9-.1,2.9-.3.9-.2,1.8-.5,2.7-.9.9-.4,1.7-.8,2.4-1.3.8-.5,1.5-1.1,2.1-1.8.6-.7,1.2-1.4,1.7-2.2.5-.8.9-1.6,1.3-2.5.4-.9.6-1.8.8-2.7.2-.9.3-1.9.3-2.9h0v-.7c0-.2,0-.4,0-.6ZM6.1,6.6h6.9c.4,0,.8,0,1.2.2.4.1.7.4,1,.7h0c.3.3.5.6.6,1,.2.4.2.8.2,1.2h0c0,.5,0,.9-.2,1.3-.1.4-.4.7-.6,1h0c-.3.3-.6.5-1,.7s-.8.2-1.2.2h-6.9v-6.3ZM17.7,21.2c0,.5,0,.9-.3,1.3-.2.4-.4.7-.7,1-.3.3-.6.5-1.1.7-.4.2-.8.2-1.3.2H6.1v-6.4h8.3c.4,0,.9,0,1.3.2.4.2.8.4,1.1.7.3.3.5.6.7,1,.2.4.3.8.3,1.2h0Z"/>
</svg>