<?xml version="1.0" encoding="UTF-8"?>
<svg id="b" xmlns="http://www.w3.org/2000/svg" version="1.1" viewBox="0 0 683.3 615">
  <!-- Generator: Adobe Illustrator 29.7.1, SVG Export Plug-In . SVG Version: 2.1.1 Build 8)  -->
  <g id="c">
    <path d="M95.7,277.8l51.3,3.6c-8.1,59.8,11.1,122,48.6,168.7,2.5,3.2,21.1,24.5,23.4,23.5,25.2-25.2,51-51.8,69.7-82.4,38.5-63.1,18-106.8-48.5-131.3s-94.5-21.9-144.9-24.3c-14.9-.7-43,2.6-54.9-7.2-6.1-5.1-7.6-13.7-5-21.2,4.3-12.4,32.5-14.6,43.7-15.7s28.6-.8,42.5-3C165.7,95.5,255.2,36.6,358.1,31.1c226.4-11.9,370.3,241.2,244,430.3-114.8,171.8-372.2,161.3-472.7-19-28-50.3-38.8-107.3-33.8-164.7h0ZM258.6,502.8c16.6,11.2,38.3,19.5,58,24.4,210.2,52.1,366.8-193,230.9-362.3-96.1-119.8-283.8-108.4-366.3,19.8-.2,2.4.5.7,1.5.6,83.1-5.7,200.5-8.1,279.9,16.6,107.3,33.4,48.1,108.3-6.5,158.7-49.8,46-117.4,91.7-174.6,128.7-7.4,4.8-15,9.8-22.9,13.5h0Z"/>
  </g>
</svg>