<?xml version="1.0" encoding="UTF-8"?>
<svg id="b" xmlns="http://www.w3.org/2000/svg" version="1.1" viewBox="0 0 353.4 360.6">
  <!-- Generator: Adobe Illustrator 29.7.1, SVG Export Plug-In . SVG Version: 2.1.1 Build 8)  -->
  <defs>
    <style>
      .st0 {
        fill-rule: evenodd;
      }
    </style>
  </defs>
  <g id="c">
    <path class="st0" d="M49.3,114.9c-.7,1.4-1.5,2.7-2.2,4.1-11.9,25.6-15.9,52.6-12.2,80.5,2.1,16.1,6.6,31.7,14.3,46.1,9.2,19,22.1,35.2,38.6,48.2,39.9,31.5,85,39.4,133.7,27,20.7-5.3,39.1-15.1,54.7-29.9,9.2-7.8,16.4-17.2,22.5-27.4,19.8-33.5,24.2-69.7,18.8-107.7-.4-2.8-1.9-3-4.2-3-43.4,0-86.8,0-130.2,0-3.5,0-4,1.1-4,4.2.2,16,0,31.9,0,47.9s1.7,5.2,5,5.2c23.5,0,47.1,0,70.6,0,4,0,4.2,1.2,3.3,4.4-1.4,4.6-2.8,9.2-4.9,13.6-5.3,11-13.2,19.6-22.8,26.9-12.1,7.4-24.9,12.1-39.1,13.7-30.5,3.2-56-6.6-76.5-29.3-8.1-8.9-13.5-19.4-17.9-30.5-5.7-19-6-38.1.3-57.1,5.2-14.3,13.1-26.6,24.2-37,32.4-30.1,82.2-30.5,112.8-2.5,2.2,2,3.1.5,4.3-.7,12.1-12.1,24.1-24.3,36.4-36.3,2.3-2.3,1.9-3.4-.3-5.3-34.5-29.8-74.6-40.4-119.4-33.2-32,5.1-59,20.1-81.4,43.5-9.9,10.4-18.3,21.8-24.2,34.9"/>
  </g>
</svg>