<?xml version="1.0" encoding="UTF-8"?><svg id="b" xmlns="http://www.w3.org/2000/svg" width="353.4" height="360.6" viewBox="0 0 353.4 360.6"><defs><style>.d{fill-rule:evenodd;}</style></defs><g id="c"><path class="d" d="M19.4,99.5c-.9,1.7-1.9,3.3-2.7,5.1C2,136.2-2.9,169.5,1.6,204c2.6,19.9,8.1,39.1,17.7,56.9,11.3,23.5,27.3,43.4,47.7,59.5,49.3,38.9,104.9,48.6,165.1,33.3,25.6-6.5,48.3-18.6,67.5-36.9,11.3-9.6,20.3-21.2,27.8-33.8,24.5-41.4,29.9-86.1,23.2-133-.5-3.5-2.3-3.7-5.2-3.7-53.6,0-107.2.1-160.7,0-4.3,0-4.9,1.4-4.9,5.2.2,19.7,0,39.4,0,59.1q0,6.4,6.2,6.4c29,0,58.1.1,87.1-.1,4.9,0,5.2,1.5,4.1,5.4-1.7,5.7-3.5,11.4-6.1,16.8-6.5,13.6-16.3,24.2-28.2,33.2-14.9,9.1-30.8,15-48.3,16.9-37.7,3.9-69.1-8.2-94.5-36.2-10-11-16.7-24-22.1-37.7-7-23.5-7.4-47,.4-70.5,6.4-17.6,16.2-32.9,29.9-45.7,40-37.2,101.5-37.6,139.2-3.1,2.7,2.5,3.8.6,5.3-.9,15-14.9,29.8-30,44.9-44.8,2.9-2.9,2.3-4.2-.4-6.6C254.7,6.9,205.2-6.2,149.9,2.7c-39.5,6.3-72.9,24.8-100.5,53.7-12.2,12.8-22.6,26.9-29.9,43.1"/></g></svg>