<?xml version="1.0" encoding="UTF-8"?>
<svg id="b" xmlns="http://www.w3.org/2000/svg" version="1.1" viewBox="0 0 300 300">
  <!-- Generator: Adobe Illustrator 29.7.1, SVG Export Plug-In . SVG Version: 2.1.1 Build 8)  -->
  <g id="c">
    <path d="M285,15v270H15V15h270ZM98.2,113.1h-28.4v3.6h9v53.6c0,.4-1.4,5.5-1.8,6.3-2.2,6.2-11.2,8.6-16.3,4.3-1.5-2.7-.4-5.9-1-8.7-1.6-7.4-11.8-4.9-11.3,3.1.7,13.3,18.3,12.7,27.7,10.2,9.4-2.5,12-9.2,13.5-18v-50.9h9.9l-1.4-3.6h0ZM136.9,113.1c-9.8-.6-20.2.4-30.1,0v3.6h8.1v59.8c0,.4-1.3,2.2-1.3,3.2-2.2,2.3-5.5,1.8-8.6,1.8v3.6h31.5l-.9-3.1c-14.9.4-8.7-16.9-9.9-26.6h13.9c2,0,9.7-2.4,11.9-3.4,9.7-4.6,11.2-13.1,10.2-23.1-.8-8-7.5-13.3-15-14.7-2.4-.4-7.4-1-9.7-1.1ZM186.9,114h-21.6v2.7h9v59l-2.1,4.7c-2.3,2.1-7.9-.4-7,4.8h20.7v-3.6l-5.8-.8c-.4-.7-2.3-3.9-2.3-4.1v-52.6l25.9,59.1c.8,2.3,3.9,3.4,4.2.3l23.9-57.6v49.9c0,.5-1.8,3.6-2,4.8-1.8,1.9-8.1-.4-7,4.7h28.8c1-5.4-5.5-2.4-7.7-5.4l-1.3-4.9v-58.1h7.2v-2.7h-18.9c-6.1,17.5-14.1,34.5-20.5,51.9s-1.1,2.4-2,1.2l-21.6-53.1h0Z"/>
    <path d="M125.7,151.8v-35.1c8.3-.2,22.1.2,24.8,9.9s1,12.3-.3,16c-3.2,9.2-16.3,9.6-24.5,9.3h0Z"/>
  </g>
</svg>