<?xml version="1.0" encoding="UTF-8"?>
<svg id="b" xmlns="http://www.w3.org/2000/svg" version="1.1" viewBox="0 0 300 300">
  <!-- Generator: Adobe Illustrator 29.7.1, SVG Export Plug-In . SVG Version: 2.1.1 Build 8)  -->
  <g id="c">
    <path d="M271.5,28.5v243H28.5V28.5h243ZM103.4,116.8h-25.6v3.2h8.1v48.2c0,.4-1.3,5-1.6,5.7-2,5.6-10.1,7.7-14.7,3.9-1.3-2.4-.4-5.3-.9-7.8-1.4-6.7-10.6-4.4-10.2,2.8.6,12,16.5,11.4,24.9,9.2,8.5-2.2,10.8-8.3,12.1-16.2v-45.8h8.9l-1.3-3.2h0ZM138.2,116.8c-8.8-.5-18.2.4-27.1,0v3.2h7.3v53.8c0,.4-1.2,2-1.2,2.9-2,2.1-5,1.6-7.7,1.6v3.2h28.4l-.8-2.8c-13.4.4-7.8-15.2-8.9-23.9h12.5c1.8,0,8.7-2.2,10.7-3.1,8.7-4.1,10.1-11.8,9.2-20.8-.7-7.2-6.8-12-13.5-13.2-2.2-.4-6.7-.9-8.7-1h0ZM183.2,117.6h-19.4v2.4h8.1v53.1l-1.9,4.2c-2.1,1.9-7.1-.4-6.3,4.3h18.6v-3.2l-5.2-.7c-.4-.6-2.1-3.5-2.1-3.7v-47.3l23.3,53.2c.7,2.1,3.5,3.1,3.8.3l21.5-51.8v44.9c0,.4-1.6,3.2-1.8,4.3-1.6,1.7-7.3-.4-6.3,4.2h25.9c.9-4.9-5-2.2-6.9-4.9l-1.2-4.4v-52.3h6.5v-2.4h-17c-5.5,15.8-12.7,31.1-18.5,46.7s-1,2.2-1.8,1.1l-19.4-47.8h0v-.2Z"/>
    <path d="M128.1,151.6v-31.6c7.5-.2,19.9.2,22.3,8.9,2.4,8.7.9,11.1-.3,14.4-2.9,8.3-14.7,8.6-22.1,8.4h0Z"/>
  </g>
</svg>