<?xml version="1.0" encoding="UTF-8"?><svg id="b" xmlns="http://www.w3.org/2000/svg" width="300" height="300" viewBox="0 0 300 300"><g id="c"><path d="M300,0v300H0V0h300ZM92.5,109h-31.5v4s10,0,10,0v59.5c0,.4-1.6,6.1-2,7-2.4,6.9-12.5,9.5-18.1,4.8-1.7-3-.4-6.5-1.1-9.7-1.8-8.2-13.1-5.4-12.6,3.5.8,14.8,20.3,14.1,30.8,11.3s13.3-10.2,15-20v-56.5s11,0,11,0l-1.5-4ZM135.5,109c-10.9-.7-22.5.5-33.5,0v4s9,0,9,0v66.5c0,.4-1.4,2.5-1.5,3.5-2.5,2.6-6.1,2-9.5,2v4h35l-1-3.5c-16.5.4-9.7-18.8-11-29.5h15.5c2.2,0,10.8-2.7,13.2-3.8,10.8-5.1,12.4-14.6,11.3-25.7-.9-8.9-8.3-14.8-16.7-16.3-2.7-.5-8.2-1.1-10.8-1.2ZM191,110h-24v3s10,0,10,0v65.6c0,0-2.3,5.2-2.3,5.2-2.6,2.3-8.8-.5-7.8,5.3h23v-4s-6.4-.9-6.4-.9c-.5-.8-2.6-4.3-2.6-4.6v-58.5l28.8,65.7c.9,2.6,4.3,3.8,4.7.3l26.6-64v55.5c0,.5-2,4-2.2,5.3-2,2.1-9-.5-7.8,5.2h32c1.1-6-6.1-2.7-8.5-6l-1.5-5.5v-64.5s8,0,8,0v-3h-21c-6.8,19.5-15.7,38.3-22.8,57.7s-1.2,2.7-2.2,1.3l-24-59Z"/><path d="M123,152v-39c9.2-.2,24.5.2,27.5,11s1.1,13.7-.3,17.8c-3.6,10.2-18.1,10.7-27.2,10.3Z"/></g></svg>