<?xml version="1.0" encoding="UTF-8"?>
<svg id="b" xmlns="http://www.w3.org/2000/svg" version="1.1" viewBox="0 0 1600 1600">
  <!-- Generator: Adobe Illustrator 29.7.1, SVG Export Plug-In . SVG Version: 2.1.1 Build 8)  -->
  <g id="c">
    <path d="M152.4,195.4v-40.5h1296v62.4c-1.6-1.2-1.9-.6-3.2.3-4.5,3.2-10.3,11.3-14.5,15.5-56.5,55.9-112.3,112.8-173.8,163.1-197.6,161.8-434.2,270.2-686.2,154.9-114.5-52.4-194.2-134.6-281.7-221.2-41.6-41.1-82.4-82.9-124-123.9-3.1-3.1-6.6-7-9.7-9.7s-1.3-2-2.8-.8Z"/>
    <path d="M227.7,1450.9c-1.7-2.9,2.1-4.1,3.6-5.7,187.8-188.6,374.7-378.4,563.8-565.4,6-5.9,11.8-12,17.8-17.8,1.7,2.3,3.6,4.5,5.7,6.5,89,83.9,174.1,173.3,260.4,259.6,99.1,99.1,201.9,197.9,297.4,298.9s15.1,13.4,17.3,17.4.3,4.7,2.8,6.5H227.7Z"/>
    <path d="M1416,1450.9l-597.6-594.1c6.6-5.3,13.9-16.2,20.4-20.7,6.6-4.5,5.6,3.6,7.7,5.3,100.6,84.6,198,173.7,296.5,260.8,77.8,68.8,157.5,136.5,232.6,206.5,5.4,5,6.3,6.8,12.6,10.9s13.6,12.6,18.1,16.7c9.4,8.3,16,15.2,24.1,23.1,3.2,3.2,7.3,4,10,6s4.1,4.1,3.5,6.2l4.5.8v78.6h-32.4,0Z"/>
    <path d="M1448.4,1358.6c-.8-1.1-2.8,0-3.1-.2-.4-.2-4.4-6.2-6.2-7.9-11.3-10.6-24.1-21.1-35.9-31.5-11.8-10.4-9.8-7-13.1-10.9-6.6-7.8-17.2-14.3-24.9-20.9-20.9-17.9-38-34-57.8-51.2-144.6-125.5-289.3-252.7-433.4-379.9-9.9-8.7-19-18.5-30-25.9l23.2-21.3,2.2.8c183.6,142,370,281.9,551.4,425.5,6.7,5.3,13.8,11.6,20.4,15.1,6.6,3.6,2.9,1,3.1,1.1,1.6,1,.6,4.8,4,3.7v103.7-.2Z"/>
    <path d="M1448.4,1241.9c-4.8,3.2-4.9-4.5-6.2-5.8s-6.7-2.8-8.9-4.3c-13.5-9.6-24.8-19.7-38-29.6-89.5-67.6-180.1-136.3-269.7-204.9-84.6-64.7-168.7-129.8-253.1-194.8l21.1-21.3,2.3.3,552.4,362.5v98h.2Z"/>
    <path d="M152.4,1428.2c1.9,1.1,1.4,1.1,2.7-.2,18.1-19.1,40.2-37.3,59.7-55.2,161-148.6,321.9-298.4,482.8-447.1,22.7-21,45.1-42.4,68-63.2,22.9-20.7,23.7-21.6,25.4-21.4,3.6,1.8,5.4,5.3,8.3,8,2.8,2.8,6.6,4.5,8.3,8.5l-.7,1.8L217.2,1450.9h-64.8v-22.7Z"/>
    <path d="M152.4,1336.7l2.4,1.2,612.4-519.2c1.9-1,7.1,5.8,8.9,7.4s9.8,7,9.6,9.7c-15.8,14.7-31.9,29-47.7,43.7-189.5,176.5-380.7,351.8-571.1,528.1-3.5,3.2-7.8,8.8-11.3,11.4s-1.6,1.6-3.2.3v-82.6h0Z"/>
    <path d="M1448.4,1041.1v92.3c-2.8,1.2-4.1.9-4-2.4l-2.4.8c1.1-4.9-3.1-3.4-5.8-4.9-6.6-3.5-13.9-10.1-20.2-14.3-82.9-53.6-166.7-107.9-249.7-162.3-87.6-57.3-174.1-117.4-262.8-172.9-1-.6-1.9-1.2-3.2-1.3-1-1.2,19.5-21.1,22.1-22.6l486.3,266.2c9.5,6.2,19.8,10.9,29.6,16.5,9.8,5.7,6.8,6.7,10.3,4.7h0Z"/>
    <path d="M152.4,1248.4l3.2-.3,587-449.1,5-2.5,15.5,16.5c-8.1,8.7-18.1,15.5-27.1,23.1-186.3,158.5-375.1,314.8-560.5,473.9-6.2,5.3-13.7,13.9-19.8,18.3s-1.5,1.1-3.2.3v-80.2Z"/>
    <path d="M152.4,1162.6c1.7,1.4,1.9.5,3.2-.4,18.5-12.1,36.3-25.4,54.5-37.9,168.7-114.9,337.4-229.4,505.8-344.7,3.2-1.1,5.8-4.9,9.2-4.6.9.5,13.9,13.4,14.7,14.6s1,1.4.8,2.4c-45.4,34.7-90.8,69.7-136.2,104.5-140.5,107.6-281.7,214.3-422.3,322.1-8.7,6.7-17,14.7-26.4,20.7s-1.9,1.5-3.2.5v-76.9h0Z"/>
    <path d="M1448.4,945.5v85.9c-1.5,1.1-2.1.9-3.6,0-167.7-92.8-335.8-185.2-504.5-276.4-4.3-2.3-8.9-4.6-13.5-6.3l21.6-21.7,2.5.3c162.6,71.4,325.4,142.5,487.5,214.8,3,1.3,7,5.1,10,3.4h0Z"/>
    <polygon points="152.4 1079.9 701.9 751.9 703.2 751.9 704.3 755.2 719.4 768.5 152.4 1154.5 152.4 1079.9"/>
    <path d="M152.4,1071.8v-72.1c3.6-.8,7.3-2.8,10.5-4.5,171.6-88.3,343.1-176.6,515.1-264.1l2-.4,16.6,15.1c.2,1.2-2,2.8-2.9,3.4-21.1,15.5-49.7,29.5-72.6,43.3-152,91.2-303.8,183.1-456.3,273.5-3.6,2.1-8.5,5.3-12.4,5.8h0Z"/>
    <path d="M1448.4,857.2v80.2l-493.3-216.7c-.5-2.6,2.9-3.6,4.5-5.2,5.5-5.3,10.4-11.2,16-16.4l1.5-.2,471.3,158.4h0Z"/>
    <path d="M152.4,922c2.6.2,4.9-1.1,7.3-2,17.6-7,35-14.7,52.4-22.1,148.1-62.9,296.1-126.3,444.1-189.3l3.2-.2c4.4,6.2,10.1,11.3,15.6,16.4L152.4,992.5v-70.5Z"/>
    <path d="M1448.4,775.4v74.5l-465.8-157.5,18.7-19.4,2-1.1c147.4,33.1,294.2,68.9,441.2,103.6,1.5.3,2.3,1.1,3.7-.2h0Z"/>
    <path d="M152.4,848.3l482.6-161.8c3-.3,8,7.1,10.2,9.3s4.9,4,7,5.6l-.9,2.4-495.5,210.8h-3.5c0,0,0-66.3,0-66.3Z"/>
    <polygon points="152.4 777 609.2 664.8 615 664 630.3 680.6 152.4 841 152.4 777"/>
    <path d="M1448.4,700.1v68l-438.2-102.5,18.9-21.2,1.7-.6c137.9,18.8,275.8,37.5,413.7,56.5,1.4.2,2.6,0,3.9-.2h0Z"/>
    <path d="M152.4,709c4.9-.4,10-1,14.9-1.7,140.9-22.6,282-43.3,423-65.5l2.8.4,15.4,17-456,111.4v-61.6Z"/>
    <path d="M1448.4,631.2v62.4l-413.1-56.3c6.5-4.6,12.1-10.4,17.5-16.1,5.3-5.8.2-1.5.8-2.1,4.5-4.1,14-1.7,19.3-1.5,109.7,2.3,219.4,7.9,328.9,12.1,15.6.6,31.1.6,46.6,1.6h0Z"/>
    <path d="M152.4,702.5v-58.3c47.5-2.4,94.7-6.4,142.2-8.1,88.5-4.1,177.1-13.1,265.7-16.2,2.4,0,8.3-.4,10.1.5s7.1,7.9,9.3,10.1,4.5,3,6.1,5.3l-433.3,66.7Z"/>
    <path d="M1448.4,568v55.9c-14.2-.5-28.4-.4-42.5-.8-35.3-.9-70.8-2.9-106-4.1-68.6-2.3-137.3-3.7-205.8-7.2-9.6-.5-19.1-2-28.8-2.1,0-3.5,6.8-7.5,8.9-9.7,3.6-3.8,6.2-8.8,11.3-11.3,89.6-4.3,179.2-10.4,268.6-15.8,21.9-1.3,43.7-2.8,65.6-4.1,9.6-.6,19.2-.7,28.8-.8h0Z"/>
    <path d="M152.4,583.4c13.9,0,27.8.3,41.7.8,111.8,3.8,224.3,6.9,336.1,13,5.2.2,15.1-1.3,19.1,1.9l12.9,14.7-409.9,23.9v-54.3Z"/>
    <path d="M152.4,525.9c2.2-.6,4.5-.2,6.7.2,50.6,6.2,101.2,14,151.7,20.8,69.6,9.4,139.4,17.6,208.8,27.7,7.9,1.1,15.2,10.6,19.9,16.5l-387.2-13.4v-51.8Z"/>
    <path d="M1448.4,511.3v50.2c-2.5,0-5.1-.2-7.7,0-90.9,6.6-182,10.8-273,16.2-23.1,1.4-48.5,1.8-71.3,4.1s-7.6,3.4-12.6,5.7c2.7-5.2,8.7-7.3,13-10.9s8.2-9.1,12.1-13c91-15.3,182.8-29.5,274.3-43.3,21.6-3.2,43.3-6.6,65.1-9Z"/>
    <path d="M152.4,471.6l346.2,81.1c7,2.3,13.3,9.1,17.5,14.9l-363.7-49v-47Z"/>
    <path d="M1448.4,414.1v38.1c-1.6-.2-3.2.2-4.7.6-99.1,22.8-197.5,49.9-296.2,74-5,3.6-9.8,7.9-15.8,9.4.7,5.3,4.1.6,7.5-.8,14.7-5.8,38.1-9.9,54.1-13.9,77.9-19.4,156.2-38.6,234.3-57.3,6.8-1.6,14-3.8,20.9-3.8v43.7l-326.7,49.6c-6.7,5.1-14.4,6.2-21.1,11.3-6.6,5-13.2,15.1-19.7,17.7s-8.4.2-12.6,1.9l-18.1,7.9c-1.4-.9.2-1.8,1-2.3,3.9-3,12.4-3.7,17.3-7,4.3-3,13.2-13.9,16.3-15.3s9.1-2,12.6-3.6,10.4-5.8,14.6-8.6.9-1.9,2.1-2.4c2.3-1.1,6.2,2.1,6.3-3.8l1.2,1.6c2.4-3.3,14.5-10.2,7.4-13-3.6,1.5-6.2,7.7-8.1,9s-2.8,0-3.7.4c-1.9.7-6.7,7.5-10.5,8.8s-4.7.2-7.3.8c-3.6.9-18.1,9.7-21.9,12.1-9,5.8-16,13-26.5,15.6-2,.5-4.2.2-6.6.7s-4.9,2.9-7.4,4-2.2.7-1.7-.9,9.1-4,10.5-4.9c5.1-3.4,11.2-10.9,17.5-13.2s8.8-1.3,13-3.2,6.5-5.5,10-7c13.5-5.8,13.5-8.8,24.3-16.2,4.5-3.1,10.2-4.2,15.1-6.8s6.7-5.3,10-7.1,4.9-1.3,7.5-2.8c10-6.4,18-18.3,30.1-22l270.3-91,4.9-.4-.2.2Z"/>
    <path d="M152.4,422.2l3.8-.2c108.6,37.7,218.9,71.8,326.7,111.6l9.8,9.6-340.3-79v-42.1Z"/>
    <path d="M152.4,375.2c12.6,4.5,24.8,9.9,37,15.2,83.2,36.4,169.1,72.3,251.1,111,9.5,4.5,21.9,9.3,27.8,18l-311.9-105-4,.5v-39.7Z"/>
    <path d="M1448.4,373.6v32.4l-270.5,89.5c6.8-6.6,13.4-13.4,21.9-17.8,81.7-31.6,161.6-72.2,243.2-103.4,1.6-.6,3.7-1.6,5.4-.6Z"/>
    <path d="M152.4,333.1c1.9-.4,2.8.4,4.1,1.1,6.6,3.1,14.2,7.4,20.7,10.9,77,41.2,154,83.4,230,126.4,8.8,4.9,20.4,10.6,28.4,16.1s5.9,4.5,7.5,7.5l-290.8-128v-34Z"/>
    <path d="M152.4,295.1c1.5-.5,2.1-1,3.6,0,8.4,4.9,18.3,13,26.9,18.5,75.7,49.7,152.4,98.3,227.3,149.4,1.5,1.1,4.1,2.5,4.6,4.3l-262.4-142.2v-30Z"/>
    <path d="M1448.4,338v27.5l-239.8,100.4c6.6-8.9,17.1-14.5,26.7-19.8,67.6-37.9,140-69.6,207.8-107.2l5.2-.9Z"/>
    <polygon points="152.4 261 155.1 260.2 365.4 423.8 152.4 285.3 152.4 261"/>
    <path d="M1448.4,308v21.9l-209,105.3c5.1-5.9,11.8-10.2,18.4-14.4,49.3-31.8,102.5-62.5,153.1-92.3,10.4-6.2,22.7-14.3,33.2-19.4,1.5-.7,2.7-1.1,4.3-1h0Z"/>
    <polygon points="152.4 230.3 317.6 376.1 152.4 251.3 152.4 230.3"/>
    <path d="M1448.4,282.9v16.2l-174.1,102.9c3.9-4.9,9.3-8.3,14.3-12,15.6-11.3,32.4-21,48.3-31.9,28.2-19.4,55.6-40.3,84.1-59.3,28.5-19,16.8-11.7,23.2-14.9,6.3-3.2,2.7-1.1,4.3-1h0Z"/>
    <polygon points="152.4 206 154.8 204.3 274.7 325.8 152.4 221.3 152.4 206"/>
    <polygon points="1448.4 261.8 1448.4 273.2 1319.6 359.9 1448.4 261.8"/>
    <path d="M1448.4,246.5v4.9l-68,51c-.3-.2,3.5-4,4.1-4.5,18.1-16.2,40.1-34.4,59.5-49.2,19.4-14.7,1.9-4,4.5-2.3Z"/>
    <path d="M832.4,833.4l-19.5,18.1-16.5-16c-.3-1.9,18.4-18.1,21.4-20.3l16.3,14.4-1.5,3.7h0Z"/>
    <path d="M860.1,801.5c.5.5.7,1.1.8,1.8l-20.4,21.3c-3.2.2-14.7-15-19.8-13.6,7.5-7.1,16.4-13,23.1-21,3.6,4.4,13.2,8,16.4,11.5Z"/>
    <path d="M791.5,830.5l-17-17.4,1.2-2,20.2-15.1,15.7,15.5c-.2,1.3-16.8,14.9-19.4,17.2s-.9,1.2-.9,1.9h0Z"/>
    <path d="M849,784.3c8.1-4.6,14.3-12.6,21.6-18.5l17.3,10.1c-6.6,7.3-12.6,15.5-20.7,21.2l-18.1-12.8h0Z"/>
    <polygon points="800.4 791.6 822 773.9 838.4 785.6 837.1 788.3 818.5 805.3 800.4 791.6"/>
    <path d="M788.9,789.2c1.1,1.9-3.7,5.9-5.1,7.2s-13,11.3-13.9,11.3-1.5-.3-2.4-.8c-4.7-2.8-10.2-12.1-15.7-15.1l21.5-15.6c3.2,3,6.4,5.8,9.7,8.7s5.8,3.9,5.9,4.2h0Z"/>
    <path d="M914.6,748.7c-3.2,3.8-17.2,21.1-20.8,21.7l-18.1-10.8c7.9-5.4,15.2-12.1,21.5-19.1l17.3,8.2Z"/>
    <path d="M752.4,756.9c1.5,2.5,11,11.7,13,12.3s2.7-.9,3.2,0c-1.2,2-3.5,3.7-5.3,5.3s-15,11.6-16.8,11.2-13.4-13.2-15.1-15.6c.2-1.2,15.1-11.7,17.3-12.7s2.3-1.3,3.6-.6h0Z"/>
    <path d="M866,760.8l-22.3,20-15.1-11.6c-.2-1.3.5-1.9,1.2-2.8,1.3-1.5,7.1-6.6,9-8,3-2.4,6.7-4.7,9.9-7.1l17.3,9.6Z"/>
    <path d="M816.6,768.1l-20.7,17c-2.8,0-13.7-11.1-16.6-13.4l19.8-15c4.1-.4,12.9,10.6,17.3,11.4h0Z"/>
    <path d="M778.5,738.1c1.5,5.3,9.4,8.6,14,11.5s1.7.6,1.4,1.8-18.9,14.4-20.6,14.3l-15.1-11.7c-.7-.6-.9-1.4-.6-2.3.6-2.2,17.7-11.8,21-13.5h0Z"/>
    <path d="M942.1,722.7l-21.6,20.9-16.4-7.9c-.7-1.1,5.3-6.6,6.5-7.7,4.5-4.2,10-8,14.6-12.2l17,6.9Z"/>
    <polygon points="842.5 745.4 822.5 763.2 820.6 762.8 804.4 751.9 825.9 735.9 842.5 745.4"/>
    <path d="M891.9,735.7c.3,1.2-.3,1.4-.8,2-1.4,2-6.4,6.6-8.5,8.5s-10,8.6-10.7,8.7c-1.4.4-2.2.2-3.4-.3-3.9-1.5-10.1-7.1-14.6-8.9l21.5-18.1c4.9,3.6,10.6,6.7,16.6,7.9h0Z"/>
    <path d="M718.1,757.2c-1.1-1.1-9.6-8.8-9.2-9.4l18.4-10.4c2.8-.6,6.7,4.8,9.2,6.8,4.1,3.4,10.8,4.6,6.1,9.3s-12.1,6.8-17,11.3c-2.6-2.4-4.9-5.1-7.4-7.6Z"/>
    <path d="M918.6,713.8c-7.1,5-14.2,11.3-19.9,17.9l-17.3-8.6,20.7-18.1,16.5,8.7h0Z"/>
    <path d="M755.7,721.2c3.5,5.2,10.4,8.6,15.5,12.5l-19.8,13.3-17.5-14.5,21.8-11.3Z"/>
    <path d="M708.3,719.2c2,1.7,14.6,11.6,14.3,12.8l-19.8,10.9c-3.6-4.3-7.6-8.8-11.8-12.5s-4.5-1.5-4.1-3.6l20.2-9.4c.5.5.6,1.4,1.1,1.8h0Z"/>
    <path d="M819.8,730c.8.9-2.2,3.4-2.8,4.1-1.8,1.5-16,11.9-17.1,12l-16.4-11.6c-.3-1.2.7-1.3,1.4-1.9,1.5-1.4,17.4-11.5,18.5-11.4,5.3,3.1,10.3,7.8,16.6,8.9h-.2Z"/>
    <path d="M869.2,722.7c1.1,1.1-18.4,17.3-20.7,17.8l-16.5-9.4,20.7-15.6c5.5,2.2,10.4,6.6,16.4,7.1h0Z"/>
    <path d="M968,696c.2,1.1.2,1.1-.5,1.7-6.4,6-13.1,11.6-18.7,18.5-2.7,1-17.3-5.5-17.3-6.8l21.1-18.6,15.4,5.3h0Z"/>
    <path d="M809.3,717.1l.5-1.7,19.4-12.8,16.5,8.4c.5,2.1-17.1,13.3-20,14.9l-16.4-8.8h0Z"/>
    <path d="M751,715.4l-21.5,11.4c-2.8,0-4.5-3.2-6.5-4.9-3.4-2.8-7-5.6-10.9-7.7l19.8-10.1c6.6,3.4,11.1,11.4,19,11.3Z"/>
    <path d="M943.7,687.9c.2,1.5-1.1,2.3-2,3.2-5.6,5.4-11.7,10.4-17.2,16l-18.1-7.2,22.3-17.6,15,5.4h0Z"/>
    <path d="M995.6,670.9c-6.6.6-15.7,17.2-20,18.5s-12.8-3.6-17.3-3.9c-1.1-1.4,18-17.7,20-19.3,2.2-.6,12.5,2.2,15.1,3.2s1.9.4,2,1.5h0Z"/>
    <path d="M698.9,710c.5.5.7,1.1.9,1.8-.2,1.7-15.1,8.3-17.9,9.2l-15.9-15.6,18.1-7.5,14.9,12.3h0Z"/>
    <path d="M894.3,701.7c.3,1.2-.2,1.3-.9,1.9-2,1.9-17.3,15.2-18.5,15.5l-15.5-7.8c-.3-1.5.7-2,1.6-2.8,1.6-1.5,16.5-13,17.6-13.2l15.6,6.4h0Z"/>
    <path d="M796.3,716.3c-3.2,2.6-15.7,13-19,12.6l-15.8-11,.8-1.9,18.3-10,15.6,10.4h0Z"/>
    <path d="M972.1,664.4l-17.4,14.6-2.8,4.9c-4.7-3.5-10.7-4.1-16.2-5.7-.7-1.1,4.9-6.2,6.1-7.3,4.1-3.9,9.2-7,13.2-11.2l17.3,4.8h0Z"/>
    <path d="M822.2,697.6c.3,1.2-.2,1.3-.8,2-1.5,1.9-16.2,11.7-18.3,11.7l-15.7-9.3c-.3-1.3,2.4-2.6,3.3-3.2,4.7-3,10.2-5.5,15.1-8.4l16.4,7.1h0Z"/>
    <path d="M872.5,691.1c1.1,1.3-18.9,14-20.8,15.2l-14.8-7.1c-.3-1.4.5-1.6,1.2-2.4,1.7-1.7,15.5-11.2,17.1-11.3,4.1-.6,12.6,5.5,17.3,5.7Z"/>
    <path d="M1022.3,642.5l-20.2,20.7-16.2-2.8c-1.5-1.3,8.4-8.8,9.3-9.7,3.4-3.3,6.8-6.7,9.9-10.4l17.3,2.3Z"/>
    <path d="M925.1,679c-1.6,2.4-4.9,2.9-7.2,4.5-3.2,2.2-14.1,12.4-16.2,12.9s-16.3-6.1-16.3-7.3l19.9-14c2.6-.4,11.3,5.3,14.5,5.4s3.2-1.7,5.2-1.6h0Z"/>
    <polygon points="774.4 700.9 762.9 708.3 754.6 712.2 738.8 700.5 757.8 691.2 774.4 700.9"/>
    <path d="M710.4,686.4c.3,4.3,15,10.3,14.6,12.4s-14.7,8.3-17.4,9.1l-6.5-4.5-9.3-8.5c.6-1.7,17.7-9.1,18.5-8.5h0Z"/>
    <path d="M678.1,690.3c1.2,1.5-16.4,9.8-18.9,8.8-3.3-5-10.4-9.5-13.5-14.1s-1.1-.8-.8-2l16.5-5.6c5.3,4.4,10,10.9,16.7,12.9Z"/>
    <path d="M1052.8,614.8c-1.1,2.2-4.9,1.9-6.2,3-4.9,4.1-9.4,10-13.9,14.6-1.5,1.5-2.9,3.2-4.9,4.1-3.3-2-6.5-1-10.1-1.4s-3.3-1.5-4.8-1.4c-2.3.2-4.3,3.5-7,3,.6-1.4,2.5-2.3,3.8-3.1,3.6-2.3,8.4-5.4,12-8.3s9.3-9.2,11.2-10c3.5-1.4,15.5,4.3,19.6-3,.8.2.4,1.6.2,2.3h0Z"/>
    <path d="M947.8,657.9l-20,16.8c-6.4-1.3-12.2-5.3-18.9-4.7l15.6-9.9,7.6-6.2,15.6,4h0Z"/>
    <path d="M898.4,670.9c-2.9,3.2-15.8,14.6-19.2,15.2-4.8,1-12.1-5-17.3-5.5l19.2-13.6,17.3,4h0Z"/>
    <path d="M655.4,670.9c-1.6,2.3-15.6,7.6-17.3,7.1l-16-15.7c0-1.2,15.5-4.7,17.2-4.3,5.4,1.3,9.2,12.5,16,12.8h0Z"/>
    <path d="M687.6,668.5c2,5.6,10.7,7.9,13.9,11.6s1.1.9.8,2l-16.5,6.6-15.9-13.4,17.7-6.8h0Z"/>
    <polygon points="800.4 686.3 784.5 695.1 779.7 696.5 764.7 686.7 783 678.2 800.4 686.3"/>
    <path d="M717.7,684.7c-.3-1.7.8-1.9,1.9-2.6,1.5-1.1,13.5-6.5,14.7-6.3,2.1,2,16.3,8.8,15.8,10.9l-17.3,8.3-15.1-10.4Z"/>
    <path d="M847.3,680.6c1,1.4-4.3,4.6-5.4,5.5-2.3,1.8-10.4,7.3-12.9,7.5s-14-6.1-14.1-6.9c.6-1.3,1.4-2.2,2.4-3.2s12.7-8.3,13.5-8.4c5.1-1.1,11.3,5,16.4,5.5h0Z"/>
    <path d="M997.2,639.3c.3,1.4-.4,1.6-1.2,2.4-2,2-16.5,15.2-17.7,15.6-2.2.8-12.3-1.9-14.3-3.9-.6-2.3,16.4-13.4,18.3-16.4l14.9,2.3Z"/>
    <path d="M1157.6,509.7c-9.2,6.2-17.3,15.5-27,20.4-10.5,5.3-21.7,10.9-31.3,17.4s-11.4,10-17.1,12c-10.9,3.9-21.8,8.3-32,14.2-5,2.8-13.2,10.5-18.1,11.8s-8.3.2-12.1,1.2l18.3-12c4.1-2.8,11.5-2.3,15.5-4s5.9-4,8.1-5c16-7,26.8-19.9,44.7-24.4l-.6-1.4c3.2-3.2,8-2.3,10.9-4,8.5-4.8,16.2-13,24.6-18.3s7.5-3.8,11.2-5.8,1.9-3.3,4.9-1.9v-.2Z"/>
    <path d="M972.9,636.1c.2,1.6-1.4,2.7-2.4,3.6-2.1,1.9-12.6,10.4-14.6,11.3-4.5,2-12.1-.9-17-1.2-.3-1.5.7-2,1.6-2.8,4.7-4.6,12.7-7.5,16.8-13.4l15.6,2.4Z"/>
    <path d="M925.9,651.5l-21.6,15.2-15.6-3.9,17.6-12.8c6.7-1.4,13.1,3.2,19.7,1.5Z"/>
    <path d="M1078.2,587.5l-22.9,22.1c-7.5.3-15.4-2.6-21.6,3,.2-4.1,5.9-3.9,8.3-5.7s1.2-2.1,2.2-2.9c3.2-2.6,13.1-11.7,15.6-12.7s6.6-.2,9.7-.8,5.8-2.3,8.7-3h0Z"/>
    <path d="M632.7,651.5c1.5,2.1-14.2,4.5-15.7,5.5l-15.9-15.6c.8-1.3,1.7-1,2.8-1.2,4.1-.9,8.7-1.1,12.9-2.3l15.9,13.6Z"/>
    <path d="M825.5,670.1l-18.4,11.9c-3.7.6-12.7-8.1-17.3-7.9l19.2-9.6c5.8,1.1,10.4,6.2,16.4,5.5h0Z"/>
    <path d="M1030.4,613.4c-8.9,1.6-12.6,8.1-18.6,13.4s-6.2,5.3-7.3,5.8c-3.3,1.1-10.4-1.4-14.2-1.2s-4.3,2.5-7,2.3c1.3-2.5,4.8-2.6,6.9-4.1,3.5-2.3,16.3-13.8,18.8-14.4,3.8-1,9.4.3,13.5-.2s3.6-1.7,5.6-2.5,1.5-.7,2.1,1h.2Z"/>
    <path d="M742.9,671.7c5-.6,13.4-6.7,18.1-6.2,1.5.2,14.3,7,14.3,8.3l-16.6,8.5-15.8-10.4h0Z"/>
    <polygon points="873.3 664.4 854.1 676.6 839.2 670.1 857.5 659.6 873.3 664.4"/>
    <path d="M678.9,664.4l-16.5,5.8c-3.6-5.6-9.5-9-14.3-13.4,0-1.9,13.5-4.1,15.8-4.9,4.1,3.7,9.6,6.6,13.6,10.4s1.7.7,1.4,2.3Z"/>
    <path d="M726.7,670.1c1.1,1.6-14.7,7.9-16.6,8.1l-15-10.9,17.3-6.7,14.3,9.6Z"/>
    <path d="M704.8,654.7c-.4,1.1-3,2.3-4.1,2.8-4.1,1.8-9.1,2.9-13.4,4.1l-13.4-11.4c.7-2,11.7-4.5,14-4.3,4.1.4,12.1,7.7,16.8,8.7Z"/>
    <path d="M610.8,632l-15.6,3.1c-1-.2-12.7-12.1-13.9-13.6s-1.5-1.1-1.2-2.4c3.6.8,7.7-.9,10.9-.9,6.5.2,14.2,11.2,19.8,13.9Z"/>
    <path d="M768.8,662c-.8-1.1,13.9-7.2,15.8-7.3,4.7-.2,11.8,3.6,15.7,6.1l-15.9,8.3-15.6-7.1h0Z"/>
    <path d="M751.8,661.2c-5.2,2.8-10.7,4.9-16.4,6.3-1.8-.2-10.4-6.5-12.1-8s-1.7-.8-1.4-2.3c5.1-1.2,11.3-4.8,16.5-4.1s14.4,6.6,13.4,8Z"/>
    <path d="M956.7,631.2l-10.4,4.5-15.2,10.8-15.6-3.2c-.2-1.5,1.8-.5,3-1.1s9-6.3,11.8-8,2.3-2.6,3.6-3c3-.9,10,1.9,14.4,1.5s5.3-2.1,8.4-1.6h0Z"/>
    <path d="M847.9,657.8l-15.7,8.9-14-6.7c-.4-.9,16.5-9.1,17.6-9.2s4.5,2.1,6,2.7,9.6,1.1,6.2,4.3h0Z"/>
    <path d="M868.5,655.4c-.3-1.4-.2-2.5.7-3.6,2-2.3,12.6-5,15.1-8.3,2.2.6,13.9,2.6,14,4.3l-16.8,10.8-13.1-3.2h0Z"/>
    <path d="M656.2,646.6l-14.9,4-15.1-12.9c4-.3,12.2-4.1,15.6-3.1s6.2,5.5,8.3,7.1,5,2.2,6.1,4.9Z"/>
    <path d="M1006.9,611.8l-12.9,7c-3.8,3.4-10.4,11-15.8,10.9s-8.5-2.1-12.6-1.6c4.2-2.9,15.1-12.2,19.4-13.4s9.2,1.2,15.4-.7,3.5-3.6,6.5-2v-.2Z"/>
    <path d="M1048.9,591.6l.9,2.3c-7,2.8-13.8,13.4-21.5,14.6-3.7.6-7.9-.2-11.7.9l7.3-7.7c3.6-2.2,6.7-6.3,10.5-8.1s9.9-1.1,14.5-1.9h0Z"/>
    <path d="M680.5,638.5c.3,1.9,0,1.3-1.1,1.8-2.2,1.2-11.6,4.1-13.8,3.7s-11.7-8.1-12.4-8.7c-2.2-2.4-1.5-3.7,1.6-4.1s9.2-1.1,11.2-.6c4.1.9,9,8,14.3,7.9h0Z"/>
    <path d="M634.3,628c-4.1-.2-11.1,4.2-14.8,3.1s-14.3-11.5-14.3-12.4c2.7-1.5,9.1-2.3,12.2-1.7s6.3,4,9.4,6,6.2,2.1,7.5,5h0Z"/>
    <path d="M776.1,648.2c.2,1.6-1.1,2.3-2.2,3.1-1.8,1.3-11,5.5-12.8,5.5-3.1,0-10.4-7-15-6.2,0-1.2,1.3-1.2,2-1.6,1.8-1,11.8-5.5,13-5.7,4-.4,10.2,5.2,14.9,4.9Z"/>
    <path d="M699.9,645c-1.9-2.8,11.7-4.9,13.4-4.9s10.4,4,12.2,4.9,2.3.7,1.9,2.1l-14.2,6-13.4-8h0Z"/>
    <path d="M825.5,649c-4.8.7-11.3,6.3-15.8,6.6s-9.9-4-14.2-4.9c-.7-.9,13.4-7.3,15-7.4s10.8,3.1,13,4.1,1.9.6,1.9,1.6h0Z"/>
    <path d="M584.7,609.6c.4.4,2,2.8,1.9,2.9l-14,.6-14.3-14.4c4.5-1.5,8.6.2,13.2.2l13.3,10.6h0Z"/>
    <path d="M922.7,629.6l-3.2,4.5c-3.8,1.1-8.5,5.8-12.2,6.6s-10-1.4-13.8-2.1c.2-.6,1.9-2.2,2.3-2.3,4.9-3.1,11.1-4.7,15.3-8.8l11.6,2.3h0Z"/>
    <path d="M876.5,640.9l-18.3,9.6c-4.9.7-8.7-3.1-13.3-4-.6-.7,15-8.6,16-8.7,3.3-.3,11.3,4.5,15.6,3.1Z"/>
    <path d="M976.1,613.4c-2,3.7-6.6,4.5-10,6.6-3.3,2.1-5.4,4.8-8.7,5.8-5.3,1.5-9.9-.6-15.2-.2,3.8-3.1,13.2-9.8,17.8-10.9s11.5-.7,16.2-1.2h0Z"/>
    <path d="M993.1,607.7l5.8-5.2c8.5-6.4,15.7-8.7,26.2-10.2l-7.8,7.6c-1.6,1.3-11.3,7.8-12.5,7.8h-11.7Z"/>
    <path d="M657,624.7l-12.4,3.1-13.5-10c7.8-6,20,.7,25.9,6.9Z"/>
    <path d="M704,632.8c.3,1.9,0,1.3-1.1,1.8-1.9,1-11.3,4.1-13,3.7s-13.2-8.9-12.7-9.6c3.9-.5,9.6-2.1,13.3-1.6s9.1,5.2,13.4,5.7Z"/>
    <path d="M725,636.9c4-.6,10.3-3.5,14.2-3.3s9.3,4.1,12.6,5.3c0,1.2-12.1,5.5-14.1,5.3s-10.8-5.1-12.6-7.3Z"/>
    <path d="M586.2,599.7c10-2.7,16.8,5.5,23.7,10.9-10.4,5.9-17.3-3.2-24.7-9.3-.7-.6.5-1.4.9-1.5h0Z"/>
    <path d="M799.6,640.1c-4.2.6-9.4,5.6-13.4,5.8s-9.3-5-14.2-4.1c0-1.1,1.9-1.5,2.7-1.8,2-.7,11.3-4.4,12.4-4.5s10,2,11.1,2.3,1.6,1.1,1.4,2.3Z"/>
    <path d="M948.6,612.6c-5,5.9-12.6,8.3-19,12.1-1.4-4-6-2-9.3-2.4l17.8-10.2,10.5.5Z"/>
    <path d="M897.6,625.5c2.5,2.3-12.1,9.2-13.5,9.6-3.8.7-8.5-1.5-12.3-1.5-.3-1.5.5-1.5,1.5-2.2s12-6.2,13.1-6.4c3.3-.6,7.7,1.3,11.3.5h0Z"/>
    <path d="M849,635.3c1.4,1.3-14,6.7-15.1,8.1l-10.9-3.2c-.3-1.6.7-1.9,1.9-2.6s11-4.9,12.1-4.9c3.6-.5,8.3,2.7,12,2.8h0Z"/>
    <path d="M562.6,591.2c.5.5,1.5,0,1.2,1.1-10.8,1.8-19-6.9-25.9-13.8,10.9-1.9,17.7,5.6,24.7,12.6Z"/>
    <path d="M1086.3,545.3c-4.5,3.5-9.8,5.4-14.5,8.6s-7,6.3-11.1,8.3l-19.8,6.6,21.1-13.4c5.1-3,11.1-4.4,16.4-7s4.3-5.3,7.9-3.2Z"/>
    <path d="M1003.7,593.1c-1.1,2.8-4.5,2.8-6.7,4.2-8.1,4.9-14.3,10.7-24.9,9.6-.2-1.3.4-1.7,1.2-2.4,1.3-1.1,9.2-6.1,10.9-6.9,6.2-2.8,13.1-2.1,19.4-4.5Z"/>
    <path d="M1121.4,526.2c-9.7,7.3-19.7,12.9-31,17.2s-2.1,1.6-3.3,1.9c-1.1-1.1,2.8-3.2,3.3-3.6,2.7-1.6,6.4-2.9,9.1-4.7,8.7-5.7,16.8-12.6,26.9-16,2.8,2.1-3.2,3.9-4.9,5.2h0Z"/>
    <path d="M704.8,627.2c-2-3,7.6-3.8,9.2-3.7,4.3.2,9.6,2.8,12.6,5.8-6.9,6.5-14.9,1.1-21.9-2h0Z"/>
    <path d="M679.7,620.7c-3.1.2-7,3.5-10,3.1s-11.2-5.8-13.5-7.9c7.5-1.9,17.8-.5,23.5,4.9Z"/>
    <path d="M775.3,632c-3.7,0-8.3,4.1-11.7,4.1s-10.9-4.1-10.9-5.3c6.6-3.2,17-4.3,22.7,1.2Z"/>
    <polygon points="1028.8 573.7 1008.3 586.8 997.2 588.3 1009.6 580 1028.8 573.7"/>
    <path d="M872.5,623.1l-11.1,6.2c-4,1.1-7-.7-10.8-1.5-2.1-2.2,11.6-6.1,12.7-6.2,3.6-.6,5.9-.3,9.2,1.5Z"/>
    <path d="M610,601.2c3.6-1.4,6.9-.6,10.4.6s11,4.8,10.7,6.3c-3.4,7.2-22-5.7-21.1-6.9Z"/>
    <path d="M976.1,595.6l-16.2,9.3c-4.1,1.9-7.9,0-12.2.4l14.2-7.3,14.2-2.4Z"/>
    <path d="M824.7,628.8c-.2,1.2-1.5,1.5-2.4,2-5.9,2.8-15.8,6.3-21.1.8,7.8-4.2,15-5.2,23.5-2.8Z"/>
    <path d="M921.9,611.8c.3,1.9-3.2,3.3-4.5,4-5.9,3.4-11.4,5.5-18.2,3.2-1.9-2.6,19.9-9.5,22.7-7.3Z"/>
    <path d="M583.8,590.1c.9.9,1.2,2.8-.2,3-5.4,1.1-16.9-7.2-20.7-11.3,3.6-.4,7.2.6,10.5,2s9.6,5.6,10.3,6.2h0Z"/>
    <path d="M538.7,570.5c-7.9,1.2-13.3-4.5-18.5-9.4s-2-1.2-1.7-2.8c3.2-2.8,18.2,8.9,20.2,12.2Z"/>
    <path d="M701.5,618.2c-1.9.2-3.6,1.5-5.3,1.6-3.4.2-13.4-4-14.1-8.1.6-.6,15.6,3.1,17.5,4s2.3.7,1.9,2.4h0Z"/>
    <path d="M733.5,623.6c-.5-.3-1.5-2.2-2.7-2.5,2.2-3.4,19.4.4,19.4,2.4-4.4,3.5-12.2,2.9-16.7,0h0Z"/>
    <path d="M846.5,619.1c-1.3,4.5-16.8,7.3-18.6,4.9,4.1-5.1,12.6-6.6,18.6-4.9Z"/>
    <path d="M794.3,622.3c1,.2,4.1,1.1,4.5,2.4-7,2.3-15.7,4.1-21.1-2.4,5.2.5,11.6-.7,16.6,0Z"/>
    <path d="M925.9,604.5l15.9-6.4c3.3.3,3.6,1.5.9,3.4-4.9,3.2-11.1,5.2-16.8,3.1h0Z"/>
    <path d="M876.5,615.8c.2-1.4,1.6-1.5,2.6-1.9,1.6-.6,16.1-5.1,16-1.8-4.6,4-13,6.6-18.6,3.6Z"/>
    <path d="M637,603.4c-.4-.5-.8-1.5-1.1-2.2,1.4-1,13.1,2.8,15.2,3.8,6.2,2.8,0,4-4.1,3.2s-8.7-3.5-10-4.9h0Z"/>
    <path d="M606,593.1c-6,2-12.7-3.5-16.2-8.1,2.6-1.1,18.1,5.5,16.2,8.1Z"/>
    <path d="M1173.8,489.5c.9.7-2.2,3.5-2.8,4-4.5,4.4-10.4,9-16.6,10.5,2.3-2.3,17-16.8,19.4-14.6Z"/>
    <path d="M995.6,580.2c-5,5.6-12.6,10-20.2,8.1l12.1-6.1,8.1-2Z"/>
    <path d="M1045,557.5c2.5,2.7-10.6,10-12.7,10.4s-2.8.3-3.4-1.1,6.6-4.1,7.5-5.4l8.7-3.9h0Z"/>
    <path d="M559.8,573.7c-7,.6-11.7-5.2-16.2-9.7,6,.9,13.4,4.1,16.2,9.7Z"/>
    <path d="M514.4,549.4c-7.1-.2-11.9-6.5-16.2-11.3,6,1.5,12.8,6.2,16.2,11.3Z"/>
    <path d="M1095.2,534c0,0-1.3.2-2,.8-3,2.8-6.1,5.9-10.4,6.7s-1.8,1.2-3-.6l14.2-9.3c.6.5,1.7,1.7,1.2,2.4Z"/>
    <path d="M768.4,615.8c.4,0,2.3.9,2.8,1.2l-5.9,2.6-9.5-3.8c4,.4,8.7-.5,12.6,0Z"/>
    <path d="M723.4,613.4c-1.9,3.3-6.4,1.6-9.3.8l-6.8-3.2,16.2,2.4h0Z"/>
    <path d="M675.6,605.3c1.2,1.2,0,1.5-1.2,1.6-3.9.5-6.4-.7-9.6-2.6s-3.2-2-3.8-3.1l14.6,4.1Z"/>
    <path d="M870,611c-5.9.7-8.9,5.2-15.4,2.4.2-1,3.2-1.7,4.1-1.9,2.7-.7,6.3-1.5,9.1-1.5s1.8-.6,2.3,1.1h0Z"/>
    <path d="M917.8,599.6c-3,3.2-6.8,5.7-11.3,4.9.9-4,8.1-4.7,11.3-4.9Z"/>
    <path d="M817,615.8c.4,0,2.3.9,2.8,1.2-.8,1.9-8,1.3-10,1.1s-4.5-1.1-4.6-2.3c3.7.3,8.2-.5,11.7,0Z"/>
    <path d="M627.8,593.9c-4.2,0-9.1-1.9-11.3-5.7,3.4,1.1,10.3,1.5,11.3,5.7Z"/>
    <path d="M583.3,576.9c-5.2-.6-10.3-3.5-13.8-7.3,4.9,1.5,10.1,3.6,13.8,7.3Z"/>
    <path d="M966.4,585.8c-3.3,2.2-6.3,3.8-10.5,3.2,2.1-3.2,7.1-2.8,10.1-4.9l.4,1.6Z"/>
    <path d="M1144.6,502.4c1.5,1.6-9,8.7-11.3,8.1l11.3-8.1Z"/>
    <path d="M534.7,551.8c.8.8,0,1.7-1.2,1.6-3.7-.2-5-3.5-7.7-5.7l8.9,4.1Z"/>
  </g>
</svg>