<?xml version="1.0" encoding="UTF-8"?><svg id="b" xmlns="http://www.w3.org/2000/svg" width="1600" height="1600" viewBox="0 0 1600 1600"><g id="c"><path d="M0,50V0h1600v77c-2-1.5-2.4-.7-4,.4-5.5,4-12.7,13.9-17.9,19.1-69.7,69-138.6,139.2-214.6,201.4-243.9,199.8-536,333.6-847.1,191.2-141.3-64.7-239.7-166.2-347.8-273.1C117.2,165.3,66.9,113.6,15.5,63c-3.8-3.8-8.1-8.7-12-12s-1.6-2.5-3.5-1Z"/><path d="M93,1600c-2.1-3.6,2.6-5.1,4.5-7,231.8-232.9,462.6-467.1,696-698,7.4-7.3,14.6-14.8,22-22,2.1,2.9,4.4,5.5,7,8,109.9,103.6,214.9,213.9,321.5,320.5,122.3,122.4,249.2,244.3,367.1,369s18.6,16.5,21.4,21.5.4,5.8,3.5,8H93Z"/><path d="M1560,1600l-737.8-733.5c8.1-6.5,17.1-20,25.2-25.5s6.9,4.4,9.5,6.6c124.2,104.5,244.5,214.5,366,322,96,84.9,194.4,168.5,287.1,254.9,6.7,6.2,7.8,8.4,15.5,13.5s16.8,15.6,22.4,20.6c11.6,10.2,19.8,18.8,29.7,28.5,4,3.9,9,4.9,12.4,7.4s5.1,5.1,4.3,7.6l5.6,1v97h-40Z"/><path d="M1600,1486c-1-1.3-3.5,0-3.8-.2-.5-.3-5.4-7.7-7.7-9.8-14-13.1-29.7-26.1-44.3-38.9s-12.1-8.7-16.2-13.5c-8.2-9.6-21.2-17.6-30.8-25.8-25.8-22.1-46.9-42-71.3-63.2-178.5-155-357.2-312-535-469-12.2-10.8-23.4-22.9-37-32l28.6-26.3,2.7,1c226.7,175.3,456.8,348,680.7,525.3,8.3,6.6,17,14.3,25.2,18.7s3.6,1.2,3.8,1.3c2,1.2.8,5.9,5,4.6v128Z"/><path d="M1600,1342c-5.9,4-6-5.6-7.7-7.1s-8.3-3.4-11-5.3c-16.7-11.9-30.6-24.3-46.9-36.6-110.5-83.5-222.3-168.3-333-253-104.4-79.9-208.3-160.3-312.5-240.5l26.1-26.3,2.8.4,682,447.5v121Z"/><path d="M0,1572c2.3,1.4,1.7,1.4,3.3-.2,22.4-23.6,49.6-46,73.7-68.2,198.8-183.5,397.4-368.4,596-552,28-25.9,55.7-52.4,84-78s29.3-26.7,31.3-26.4c4.4,2.2,6.7,6.5,10.2,9.9s8.2,5.5,10.2,10.5l-.9,2.2L80,1600H0v-28Z"/><path d="M0,1459l3,1.5,756-641c2.3-1.2,8.8,7.1,11,9.1s12.1,8.7,11.9,12c-19.5,18.1-39.4,35.8-58.9,54-234,217.9-470,434.3-705,652-4.3,4-9.6,10.9-14,14.1s-2,2-4,.4v-102Z"/><path d="M1600,1094v114c-3.5,1.5-5.1,1.1-5-3l-3,1c1.4-6-3.8-4.2-7.2-6-8.2-4.3-17.2-12.5-25-17.6-102.4-66.2-205.8-133.2-308.3-200.4-108.1-70.8-215-145-324.5-213.5-1.2-.8-2.4-1.5-3.9-1.6-1.2-1.5,24.1-26,27.3-27.9l600.4,328.7c11.7,7.7,24.5,13.4,36.6,20.4s8.4,8.3,12.7,5.8Z"/><path d="M0,1350l4-.4,724.7-554.4,6.2-3.1,19.1,20.4c-10,10.8-22.3,19.1-33.5,28.5-230,195.7-463.1,388.6-692,585-7.6,6.5-16.9,17.2-24.5,22.6s-1.9,1.3-4,.4v-99Z"/><path d="M0,1244c2.1,1.7,2.4.6,4-.5,22.8-14.9,44.8-31.4,67.3-46.8,208.3-141.9,416.6-283.2,624.4-425.6,3.9-1.3,7.2-6.1,11.3-5.7,1.1.6,17.1,16.6,18.1,18s1.2,1.7,1,3c-56.1,42.9-112.1,86.1-168.2,129-173.5,132.8-347.8,264.6-521.4,397.6-10.8,8.3-21,18.2-32.6,25.5s-2.3,1.9-3.9.6v-95Z"/><path d="M1600,976v106c-1.9,1.4-2.6,1.1-4.5,0-207-114.6-414.6-228.7-622.8-341.2-5.3-2.9-11-5.7-16.7-7.8l26.7-26.8,3.1.4c200.7,88.2,401.7,175.9,601.9,265.2,3.7,1.6,8.7,6.3,12.3,4.2Z"/><polygon points="0 1142 678.5 737 680 737 681.4 741.1 700 757.5 0 1234 0 1142"/><path d="M0,1132v-89c4.5-1,9-3.4,13-5.5,211.9-109,423.6-218,635.9-326.1l2.5-.5,20.5,18.6c.3,1.5-2.5,3.4-3.6,4.2-26,19.1-61.4,36.4-89.6,53.4-187.7,112.6-375.1,226.1-563.3,337.7-4.4,2.6-10.5,6.5-15.3,7.2Z"/><path d="M1600,867v99l-609-267.5c-.6-3.2,3.6-4.5,5.6-6.4,6.8-6.6,12.9-13.8,19.8-20.3l1.8-.3,581.9,195.5Z"/><path d="M0,947c3.2.2,6.1-1.4,9-2.5,21.7-8.6,43.2-18.2,64.7-27.3,182.9-77.6,365.5-155.9,548.3-233.7l3.9-.3c5.4,7.7,12.5,13.9,19.2,20.3L0,1034v-87Z"/><path d="M1600,766v92l-575-194.5,23.1-23.9,2.5-1.3c182,40.9,363.2,85.1,544.7,127.9,1.8.4,2.8,1.4,4.6-.2Z"/><path d="M0,856l595.8-199.8c3.7-.4,9.9,8.8,12.6,11.5s6.1,4.9,8.7,6.9l-1.1,3L4.3,937.9H0c0,.1,0-81.9,0-81.9Z"/><polygon points="0 768 564 629.5 571.1 628.5 590 649 0 847 0 768"/><path d="M1600,673v84l-541-126.5,23.3-26.2,2.1-.8c170.2,23.2,340.5,46.3,510.7,69.8,1.7.2,3.2,0,4.8-.3Z"/><path d="M0,684c6.1-.5,12.3-1.2,18.4-2.1,173.9-27.9,348.2-53.4,522.2-80.9l3.4.5,19,21L0,760v-76Z"/><path d="M1600,588v77l-510-69.5c8-5.7,15-12.8,21.6-19.9s.2-1.9,1-2.6c5.5-5.1,17.3-2.1,23.8-1.9,135.4,2.8,270.9,9.8,406,15,19.2.7,38.4.8,57.5,2Z"/><path d="M0,676v-72c58.6-3,116.9-7.9,175.5-10,109.3-5.1,218.7-16.2,328-20,3-.1,10.2-.5,12.5.6s8.8,9.8,11.5,12.5,5.5,3.7,7.5,6.5L0,676Z"/><path d="M1600,510v69c-17.5-.6-35-.5-52.5-1-43.6-1.1-87.4-3.6-130.9-5.1-84.7-2.9-169.5-4.6-254.1-8.9-11.8-.6-23.6-2.5-35.5-2.6,0-4.3,8.4-9.2,11-12,4.4-4.7,7.7-10.9,13.9-14,110.6-5.3,221.2-12.9,331.6-19.5,27-1.6,54-3.4,81-5,11.8-.7,23.7-.9,35.5-1Z"/><path d="M0,529c17.2,0,34.3.4,51.5,1,138,4.7,276.9,8.5,415,16,6.4.3,18.7-1.6,23.6,2.4l15.9,18.1L0,596v-67Z"/><path d="M0,458c2.7-.8,5.6-.2,8.3.2,62.5,7.6,124.9,17.3,187.3,25.7,85.9,11.6,172.1,21.7,257.8,34.2,9.7,1.4,18.8,13.1,24.6,20.4L0,522v-64Z"/><path d="M1600,440v62c-3.1.1-6.3-.2-9.5,0-112.2,8.1-224.7,13.3-337,20-28.5,1.7-59.9,2.2-88,5s-9.4,4.2-15.5,7c3.3-6.4,10.7-9,16-13.5s10.1-11.2,15-16c112.4-18.9,225.7-36.4,338.6-53.4,26.7-4,53.5-8.1,80.4-11.1Z"/><path d="M0,391l427.4,100.1c8.7,2.9,16.4,11.2,21.6,18.4L0,449v-58Z"/><path d="M1600,320v47c-2-.2-3.9.2-5.8.7-122.3,28.2-243.8,61.6-365.7,91.3-6.2,4.5-12.1,9.8-19.5,11.6.9,6.6,5.1.7,9.2-1,18.1-7.1,47-12.2,66.8-17.2,96.2-24,192.8-47.6,289.2-70.8,8.4-2,17.3-4.7,25.8-4.7v54l-403.3,61.2c-8.3,6.3-17.8,7.7-26,13.9s-16.3,18.6-24.3,21.8-10.4.2-15.6,2.4l-22.3,9.7c-1.7-1.1.3-2.2,1.2-2.8,4.8-3.7,15.3-4.6,21.3-8.7,5.3-3.7,16.3-17.1,20.1-18.9s11.2-2.5,15.6-4.4,12.8-7.2,18-10.6,1.1-2.3,2.6-3c2.8-1.3,7.7,2.6,7.8-4.7l1.5,2c3-4.1,17.9-12.6,9.1-16-4.4,1.8-7.6,9.5-10,11.1s-3.4,0-4.6.5c-2.3.9-8.3,9.3-13,10.9s-5.8.2-9,1c-4.5,1.1-22.3,12-27,15-11.1,7.1-19.8,16.1-32.7,19.3-2.5.6-5.2.2-8.1.9s-6.1,3.6-9.1,4.9-2.7.9-2.1-1.1,11.2-4.9,13-6.1c6.3-4.2,13.8-13.4,21.6-16.3s10.9-1.6,16.1-3.9,8-6.8,12.4-8.6c16.7-7.2,16.7-10.9,30-20,5.6-3.8,12.6-5.2,18.6-8.4s8.3-6.6,12.3-8.8,6.1-1.6,9.2-3.5c12.3-7.9,22.2-22.6,37.2-27.1l333.7-112.3,6-.5Z"/><path d="M0,330l4.7-.2c134.1,46.6,270.2,88.7,403.3,137.8l12.1,11.9L0,382v-52Z"/><path d="M0,272c15.5,5.5,30.6,12.2,45.7,18.8,102.7,45,208.8,89.2,310,137,11.7,5.5,27,11.5,34.3,22.2L5,320.4l-5,.6v-49Z"/><path d="M1600,270v40l-334,110.5c8.4-8.1,16.5-16.6,27-22,100.9-39,199.5-89.1,300.3-127.7,2-.8,4.6-2,6.7-.8Z"/><path d="M0,220c2.3-.5,3.4.5,5.1,1.4,8.1,3.8,17.5,9.1,25.5,13.5,95.1,50.9,190.1,103,284,156,10.9,6.1,25.2,13.1,35.1,19.9s7.3,5.5,9.3,9.2L0,262v-42Z"/><path d="M0,173c1.9-.6,2.6-1.2,4.5,0,10.4,6.1,22.6,16,33.2,22.9,93.5,61.3,188.2,121.4,280.6,184.4,1.8,1.3,5,3.1,5.7,5.3L0,210v-37Z"/><path d="M1600,226v34l-296,124c8.2-11,21.1-17.9,33-24.5,83.5-46.8,172.8-85.9,256.6-132.4l6.4-1.1Z"/><polygon points="0 131 3.4 130 263 332 0 161 0 131"/><path d="M1600,189v27l-258,130c6.3-7.3,14.6-12.6,22.7-17.8,60.9-39.2,126.5-77.1,189-114,12.8-7.6,28-17.6,41-24,1.8-.9,3.3-1.4,5.3-1.2Z"/><polygon points="0 93 204 273 0 119 0 93"/><path d="M1600,158v20l-215,127c4.8-6,11.5-10.3,17.7-14.8,19.2-13.9,40-25.9,59.6-39.4,34.8-24,68.6-49.8,103.8-73.2s20.8-14.5,28.6-18.4,3.3-1.4,5.3-1.2Z"/><polygon points="0 63 3 61 151 211 0 82 0 63"/><polygon points="1600 132 1600 146 1441 253 1600 132"/><path d="M1600,113v6l-84,63c-.4-.3,4.3-4.9,5-5.5,22.3-20,49.5-42.5,73.4-60.7s2.4-4.9,5.6-2.8Z"/><path d="M839.6,837.6l-24.1,22.4-20.4-19.7c-.4-2.4,22.7-22.3,26.4-25.1l20.1,17.8-1.9,4.6Z"/><path d="M873.7,798.3c.6.6.9,1.4,1,2.2l-25.2,26.3c-4,.3-18.1-18.5-24.5-16.8,9.3-8.8,20.3-16,28.5-25.9,4.4,5.4,16.3,9.9,20.2,14.2Z"/><path d="M789,834l-21-21.5,1.5-2.5,25-18.7,19.4,19.1c-.3,1.6-20.8,18.4-23.9,21.2s-1.1,1.5-1.1,2.4Z"/><path d="M860,777c10-5.7,17.6-15.6,26.7-22.9l21.3,12.5c-8.2,9-15.6,19.1-25.6,26.2l-22.3-15.8Z"/><polygon points="800 786 826.7 764.2 846.9 778.6 845.4 781.9 822.4 802.9 800 786"/><path d="M785.9,783.1c1.3,2.3-4.6,7.3-6.3,8.9s-16,13.9-17.1,14-1.9-.4-3-1c-5.8-3.4-12.6-15-19.4-18.6l26.5-19.3c3.9,3.7,7.9,7.2,12,10.7s7.1,4.8,7.3,5.2Z"/><path d="M941,733c-3.9,4.7-21.2,26-25.7,26.8l-22.3-13.3c9.7-6.7,18.8-14.9,26.6-23.6l21.4,10.1Z"/><path d="M740.8,743.2c1.8,3.1,13.6,14.5,16.1,15.2s3.3-1.1,4,0c-1.5,2.5-4.3,4.6-6.5,6.5s-18.5,14.3-20.8,13.8-16.6-16.3-18.6-19.2c.3-1.5,18.7-14.4,21.4-15.7s2.9-1.6,4.4-.7Z"/><path d="M881,748l-27.5,24.7-18.6-14.3c-.2-1.6.6-2.4,1.5-3.5,1.6-1.8,8.8-8.1,11.1-9.9,3.7-3,8.3-5.8,12.2-8.8l21.3,11.8Z"/><path d="M820,757l-25.5,21c-3.5.1-16.9-13.7-20.5-16.6l24.5-18.5c5.1-.5,15.9,13.1,21.4,14.1Z"/><path d="M773,720c1.8,6.6,11.6,10.6,17.3,14.2s2.1.8,1.7,2.2-23.3,17.8-25.4,17.6l-18.6-14.5c-.9-.8-1.1-1.7-.8-2.9.7-2.7,21.8-14.6,25.9-16.7Z"/><path d="M975,701l-26.7,25.8-20.3-9.8c-.9-1.3,6.5-8.2,8-9.5,5.5-5.2,12.3-9.9,18-15l21,8.5Z"/><polygon points="852 729 827.3 750.9 825 750.5 805 737 831.5 717.3 852 729"/><path d="M913,717c.4,1.5-.4,1.7-1,2.5-1.7,2.5-7.9,8.2-10.5,10.5s-12.4,10.6-13.2,10.8c-1.7.5-2.7.2-4.2-.4-4.8-1.8-12.5-8.8-18-11l26.5-22.3c6,4.5,13.1,8.3,20.5,9.8Z"/><path d="M698.4,743.6c-1.3-1.3-11.9-10.9-11.4-11.6l22.7-12.9c3.4-.7,8.3,5.9,11.3,8.4,5.1,4.2,13.3,5.7,7.5,11.5s-15,8.4-21,14c-3.2-3-6-6.3-9.1-9.4Z"/><path d="M946,690c-8.8,6.2-17.5,14-24.6,22.1l-21.3-10.6,25.6-22.3,20.4,10.8Z"/><path d="M744.9,699.1c4.3,6.4,12.9,10.6,19.1,15.4l-24.4,16.4-21.6-17.9,26.9-13.9Z"/><path d="M686.4,696.6c2.5,2.1,18,14.3,17.6,15.8l-24.4,13.5c-4.5-5.3-9.4-10.9-14.6-15.4s-5.5-1.8-5-4.5l25-11.6c.6.6.8,1.7,1.3,2.2Z"/><path d="M824,710c1,1.1-2.7,4.2-3.5,5-2.2,1.9-19.8,14.7-21.1,14.8l-20.3-14.3c-.4-1.5.9-1.6,1.7-2.3,1.8-1.7,21.5-14.2,22.9-14.1,6.6,3.8,12.7,9.6,20.5,11Z"/><path d="M885,701c1.3,1.3-22.7,21.4-25.5,22l-20.4-11.6,25.6-19.3c6.8,2.7,12.8,8.1,20.3,8.8Z"/><path d="M1007,668c.3,1.4.2,1.3-.6,2.1-7.9,7.4-16.2,14.3-23.1,22.8-3.3,1.2-21.3-6.8-21.3-8.4l26-23,19,6.5Z"/><path d="M811,694l.6-2.1,24-15.8,20.4,10.4c.6,2.6-21.1,16.4-24.7,18.4l-20.3-10.9Z"/><path d="M739,692l-26.5,14.1c-3.4,0-5.5-4-8-6.1-4.2-3.4-8.7-6.9-13.5-9.5l24.5-12.5c8.1,4.2,13.7,14.1,23.5,14Z"/><path d="M977,658c.3,1.9-1.3,2.9-2.5,4-6.9,6.7-14.5,12.8-21.2,19.8l-22.4-8.9,27.5-21.7,18.5,6.7Z"/><path d="M1041,637c-8.1.8-19.4,21.2-24.7,22.8s-15.8-4.4-21.3-4.8c-1.3-1.7,22.2-21.8,24.7-23.8,2.7-.8,15.4,2.7,18.7,3.9s2.4.5,2.5,1.9Z"/><path d="M674.7,685.3c.6.6.9,1.4,1.1,2.2-.3,2.1-18.7,10.2-22.1,11.3l-19.6-19.3,22.3-9.3,18.4,15.2Z"/><path d="M916,675c.4,1.5-.2,1.6-1.1,2.4-2.5,2.4-21.3,18.8-22.8,19.1l-19.1-9.6c-.4-1.8.9-2.5,2-3.5,2-1.9,20.4-16.1,21.7-16.3l19.3,7.9Z"/><path d="M795,693c-3.9,3.2-19.4,16-23.5,15.6l-19.5-13.6,1-2.4,22.6-12.4,19.3,12.9Z"/><path d="M1012,629l-21.5,18-3.5,6c-5.8-4.3-13.2-5.1-20-7-.9-1.3,6.1-7.7,7.5-9,5.1-4.8,11.3-8.7,16.3-13.8l21.3,5.9Z"/><path d="M827,670c.4,1.5-.3,1.6-1,2.5-1.8,2.4-20,14.4-22.6,14.5l-19.4-11.5c-.4-1.6,3-3.2,4.1-3.9,5.8-3.7,12.6-6.8,18.6-10.4l20.3,8.8Z"/><path d="M889,662c1.3,1.6-23.3,17.3-25.7,18.8l-18.3-8.8c-.4-1.7.6-2,1.5-3,2.1-2.1,19.1-13.8,21.1-14,5.1-.7,15.5,6.8,21.4,7Z"/><path d="M1074,602l-25,25.5-20-3.5c-1.8-1.6,10.4-10.9,11.5-12,4.2-4.1,8.4-8.3,12.2-12.9l21.3,2.9Z"/><path d="M954,647c-2,3-6,3.6-8.9,5.6-3.9,2.7-17.4,15.3-20,15.9s-20.1-7.5-20.1-9l24.6-17.3c3.2-.5,14,6.5,17.9,6.7s3.9-2.1,6.4-2Z"/><polygon points="768 674 753.7 683.2 743.5 688 724 673.5 747.5 662.1 768 674"/><path d="M688.9,656.1c.4,5.3,18.5,12.7,18,15.3s-18.1,10.2-21.5,11.2l-8-5.6-11.5-10.5c.8-2.1,21.9-11.2,22.9-10.5Z"/><path d="M649,661c1.5,1.9-20.3,12.1-23.3,10.9-4.1-6.2-12.8-11.7-16.7-17.4s-1.4-1-1-2.5l20.4-6.9c6.5,5.4,12.3,13.4,20.6,15.9Z"/><path d="M1111.7,567.8c-1.3,2.7-6,2.4-7.6,3.7-6.1,5.1-11.6,12.4-17.1,18-1.8,1.9-3.6,3.9-6,5.1-4.1-2.5-8-1.2-12.5-1.7s-4.1-1.8-5.9-1.7c-2.8.3-5.3,4.3-8.7,3.7.8-1.7,3.1-2.8,4.7-3.8,4.4-2.8,10.4-6.7,14.8-10.2s11.5-11.4,13.8-12.3c4.3-1.7,19.1,5.3,24.2-3.7,1,.2.5,2,.2,2.8Z"/><path d="M982,621l-24.7,20.7c-7.9-1.6-15.1-6.5-23.3-5.8l19.3-12.2,9.4-7.7,19.3,4.9Z"/><path d="M921,637c-3.6,3.9-19.5,18-23.7,18.8-5.9,1.2-15-6.2-21.3-6.8l23.7-16.8,21.3,4.9Z"/><path d="M621,637c-2,2.9-19.2,9.4-21.3,8.8l-19.7-19.4c0-1.5,19.1-5.8,21.2-5.3,6.7,1.6,11.3,15.4,19.8,15.8Z"/><path d="M660.8,634.1c2.5,6.9,13.2,9.7,17.2,14.3s1.3,1.1,1,2.5l-20.4,8.1-19.6-16.5,21.8-8.4Z"/><polygon points="800 656 780.4 666.9 774.5 668.6 756 656.5 778.6 646 800 656"/><path d="M698,654c-.4-2.1,1-2.3,2.3-3.2,1.9-1.3,16.7-8,18.2-7.8,2.6,2.5,20.1,10.9,19.5,13.5l-21.3,10.3-18.7-12.8Z"/><path d="M858,649c1.2,1.7-5.3,5.7-6.7,6.8-2.9,2.2-12.9,9-15.9,9.2s-17.3-7.5-17.4-8.5c.8-1.6,1.7-2.7,3-4s15.7-10.2,16.7-10.4c6.3-1.3,13.9,6.2,20.3,6.8Z"/><path d="M1043,598c.4,1.7-.5,2-1.5,3-2.5,2.5-20.4,18.8-21.8,19.3-2.7,1-15.2-2.3-17.7-4.8-.7-2.9,20.2-16.5,22.6-20.3l18.4,2.8Z"/><path d="M1241,438c-11.3,7.6-21.3,19.1-33.3,25.2-13,6.6-26.8,13.5-38.6,21.5s-14.1,12.3-21.1,14.8c-13.5,4.8-26.9,10.3-39.5,17.5-6.2,3.5-16.3,13-22.4,14.6s-10.3.3-15,1.5l22.6-14.8c5.1-3.5,14.2-2.8,19.1-4.9s7.3-5,10-6.2c19.7-8.7,33.1-24.6,55.2-30.1l-.8-1.7c4-3.9,9.9-2.9,13.5-4.9,10.5-5.9,20-16.1,30.4-22.6s9.3-4.7,13.8-7.2,2.3-4.1,6.1-2.4Z"/><path d="M1013,594c.3,2-1.7,3.3-3,4.5-2.6,2.4-15.6,12.9-18,14-5.6,2.5-14.9-1.1-21-1.5-.4-1.8.9-2.5,2-3.5,5.8-5.7,15.7-9.2,20.7-16.5l19.3,3Z"/><path d="M955,613l-26.7,18.8-19.3-4.8,21.7-15.8c8.3-1.7,16.2,4,24.3,1.8Z"/><path d="M1143,534l-28.3,27.3c-9.3.4-19-3.2-26.7,3.7.3-5.1,7.3-4.8,10.3-7s1.5-2.6,2.7-3.6c4-3.2,16.2-14.4,19.3-15.7s8.1-.2,12-1,7.1-2.9,10.8-3.7Z"/><path d="M593,613c1.8,2.6-17.5,5.6-19.4,6.8l-19.6-19.3c1-1.6,2.1-1.2,3.5-1.5,5.1-1.1,10.8-1.3,15.9-2.8l19.6,16.8Z"/><path d="M831,636l-22.7,14.7c-4.6.7-15.7-10-21.3-9.8l23.7-11.8c7.1,1.4,12.8,7.6,20.3,6.8Z"/><path d="M1084,566c-11,2-15.5,10-23,16.5s-7.6,6.6-9,7.1c-4.1,1.3-12.9-1.7-17.5-1.5s-5.3,3.1-8.6,2.9c1.6-3.1,5.9-3.2,8.5-5,4.3-2.9,20.1-17,23.2-17.8,4.7-1.2,11.6.4,16.7-.3s4.5-2.1,6.9-3.1,1.9-.9,2.6,1.2Z"/><path d="M729,638c6.2-.8,16.5-8.3,22.4-7.7,1.9.2,17.6,8.7,17.6,10.2l-20.5,10.5-19.5-12.9Z"/><polygon points="890 629 866.4 644 848 636 870.6 623 890 629"/><path d="M650,629l-20.4,7.1c-4.4-6.9-11.7-11.1-17.6-16.6,0-2.3,16.7-5,19.5-6.1,5,4.6,11.8,8.2,16.8,12.8s2.1.9,1.7,2.8Z"/><path d="M709,636c1.4,2-18.2,9.8-20.5,10l-18.5-13.5,21.4-8.3,17.6,11.8Z"/><path d="M682,617c-.5,1.4-3.7,2.9-5,3.5-5,2.2-11.2,3.6-16.5,5.1l-16.5-14.1c.9-2.5,14.5-5.6,17.3-5.3,5.1.5,14.9,9.5,20.7,10.8Z"/><path d="M566,589l-19.3,3.8c-1.2-.3-15.7-14.9-17.2-16.8s-1.9-1.3-1.5-3c4.4,1,9.5-1.1,13.5-1.1,8,.2,17.5,13.8,24.5,17.1Z"/><path d="M761,626c-1-1.4,17.1-8.9,19.5-9,5.8-.3,14.6,4.4,19.4,7.5l-19.6,10.3-19.3-8.8Z"/><path d="M740,625c-6.4,3.5-13.2,6.1-20.3,7.8-2.2-.2-12.8-8-15-9.9s-2.1-1-1.7-2.8c6.3-1.5,14-5.9,20.4-5s17.8,8.1,16.6,9.9Z"/><path d="M993,588l-12.9,5.6-18.8,13.3-19.3-3.9c-.2-1.8,2.2-.6,3.7-1.3s11.1-7.8,14.6-9.9,2.9-3.2,4.4-3.7c3.7-1.1,12.3,2.3,17.8,1.9s6.5-2.6,10.4-2Z"/><path d="M858.7,620.8l-19.4,11-17.3-8.3c-.5-1.1,20.4-11.2,21.7-11.3s5.6,2.6,7.4,3.3,11.8,1.4,7.7,5.3Z"/><path d="M884.1,617.9c-.4-1.7-.3-3.1.9-4.4,2.5-2.9,15.5-6.2,18.7-10.3,2.7.8,17.2,3.2,17.3,5.3l-20.7,13.3-16.2-3.9Z"/><path d="M622,607l-18.4,4.9-18.6-15.9c4.9-.4,15-5.1,19.3-3.8s7.7,6.8,10.2,8.8,6.2,2.7,7.5,6Z"/><path d="M1055,564l-15.9,8.6c-4.7,4.2-12.9,13.6-19.5,13.5s-10.5-2.6-15.6-2c5.2-3.6,18.6-15.1,24-16.5s11.4,1.5,19-.9,4.3-4.5,8-2.5Z"/><path d="M1106.8,539.1l1.1,2.8c-8.7,3.5-17,16.6-26.5,18-4.6.7-9.8-.3-14.4,1.1l9-9.5c4.4-2.7,8.3-7.8,13-10s12.2-1.4,17.9-2.3Z"/><path d="M652,597c.4,2.3-.1,1.6-1.3,2.2-2.7,1.5-14.3,5.1-17,4.6s-14.5-10-15.3-10.8c-2.7-3-1.9-4.6,2-5.1s11.4-1.3,13.8-.7c5.1,1.1,11.1,9.9,17.7,9.8Z"/><path d="M595,584c-5.1-.2-13.7,5.2-18.3,3.8s-17.7-14.2-17.7-15.3c3.3-1.9,11.2-2.8,15-2.1s7.8,4.9,11.6,7.4,7.6,2.6,9.3,6.2Z"/><path d="M770,609c.3,2-1.3,2.8-2.7,3.8-2.2,1.6-13.6,6.8-15.8,6.8-3.8-.1-12.8-8.7-18.5-7.6,0-1.5,1.6-1.5,2.5-2,2.2-1.2,14.6-6.8,16.1-7,4.9-.5,12.6,6.4,18.4,6Z"/><path d="M676,605c-2.4-3.4,14.4-6.1,16.5-6s12.8,4.9,15.1,6,2.8.9,2.4,2.6l-17.5,7.4-16.5-9.9Z"/><path d="M831,610c-5.9.9-14,7.8-19.5,8.1s-12.2-4.9-17.5-6.1c-.9-1.1,16.5-9,18.5-9.1s13.3,3.8,16,5,2.3.7,2.4,2Z"/><path d="M533.7,561.3c.5.5,2.5,3.5,2.3,3.6l-17.3.8-17.7-17.8c5.5-1.8,10.6.2,16.3.2l16.4,13.1Z"/><path d="M951,586l-4,5.5c-4.7,1.4-10.5,7.2-15,8.1s-12.3-1.7-17-2.6c.2-.7,2.4-2.7,2.8-2.9,6.1-3.8,13.7-5.8,18.9-10.9l14.3,2.9Z"/><path d="M894,600l-22.6,11.9c-6,.9-10.7-3.8-16.4-5-.7-.9,18.5-10.6,19.7-10.7,4.1-.4,14,5.5,19.3,3.8Z"/><path d="M1017,566c-2.5,4.6-8.2,5.6-12.3,8.2s-6.7,5.9-10.8,7.2c-6.6,1.9-12.2-.8-18.8-.3,4.7-3.8,16.3-12.1,22-13.5s14.2-.9,20-1.5Z"/><path d="M1038,559l7.1-6.4c10.5-7.9,19.4-10.8,32.4-12.6l-9.6,9.4c-2,1.6-14,9.6-15.4,9.6h-14.5Z"/><path d="M623,580l-15.3,3.8-16.7-12.3c9.6-7.4,24.7.9,32,8.5Z"/><path d="M681,590c.4,2.3-.1,1.6-1.3,2.2-2.3,1.2-14,5.1-16,4.6s-16.3-11-15.7-11.8c4.8-.6,11.8-2.6,16.4-2s11.2,6.4,16.6,7Z"/><path d="M707,595c4.9-.8,12.7-4.3,17.5-4.1s11.5,5.1,15.5,6.6c0,1.5-14.9,6.8-17.4,6.5s-13.3-6.3-15.6-9Z"/><path d="M535.6,549.1c12.3-3.3,20.7,6.8,29.3,13.4-12.9,7.3-21.4-4-30.5-11.5-.9-.7.6-1.7,1.1-1.9Z"/><path d="M799,599c-5.2.8-11.6,6.9-16.5,7.1s-11.5-6.2-17.5-5.1c-.1-1.3,2.3-1.8,3.3-2.2,2.5-.9,13.9-5.4,15.3-5.5s12.3,2.5,13.7,2.9,2,1.4,1.7,2.8Z"/><path d="M983,565c-6.2,7.3-15.5,10.2-23.5,15-1.7-5-7.4-2.5-11.5-3l22-12.6,13,.6Z"/><path d="M920,581c3.1,2.8-14.9,11.4-16.7,11.8-4.7.9-10.5-1.9-15.2-1.8-.4-1.9.6-1.9,1.8-2.7s14.8-7.6,16.2-7.9c4.1-.8,9.5,1.6,14,.6Z"/><path d="M860,593c1.7,1.6-17.3,8.3-18.6,10l-13.4-4c-.4-2,.9-2.4,2.3-3.2s13.6-6,14.9-6.1c4.4-.6,10.3,3.3,14.8,3.4Z"/><path d="M506.5,538.6c.6.6,1.9,0,1.5,1.4-13.3,2.2-23.5-8.5-32-17,13.4-2.4,21.9,6.9,30.5,15.6Z"/><path d="M1153,482c-5.5,4.3-12.1,6.7-17.9,10.6s-8.7,7.8-13.7,10.3l-24.4,8.1,26-16.5c6.3-3.7,13.7-5.4,20.2-8.6s5.3-6.5,9.8-3.9Z"/><path d="M1051,541c-1.4,3.5-5.6,3.5-8.3,5.2-10,6-17.7,13.2-30.7,11.8-.3-1.6.5-2.1,1.5-3,1.6-1.4,11.4-7.5,13.5-8.5,7.6-3.4,16.2-2.6,24-5.5Z"/><path d="M1196.4,458.4c-12,9-24.3,15.9-38.3,21.2s-2.6,2-4.1,2.4c-1.3-1.3,3.4-4,4.1-4.4,3.3-2,7.9-3.6,11.2-5.8,10.8-7,20.7-15.5,33.2-19.8,3.5,2.6-3.9,4.8-6.1,6.4Z"/><path d="M682,583c-2.5-3.7,9.4-4.7,11.3-4.6,5.3.3,11.8,3.5,15.6,7.1-8.5,8-18.4,1.4-27-2.5Z"/><path d="M651,575c-3.8.2-8.7,4.3-12.3,3.8s-13.8-7.2-16.7-9.8c9.2-2.3,22-.6,29,6Z"/><path d="M769,589c-4.6,0-10.2,5.1-14.5,5.1s-13.4-5.1-13.5-6.6c8.2-4,21-5.3,28,1.5Z"/><polygon points="1082 517 1056.7 533.2 1043 535 1058.3 524.8 1082 517"/><path d="M889,578l-13.7,7.7c-4.9,1.4-8.7-.9-13.3-1.8-2.6-2.7,14.3-7.5,15.7-7.7,4.5-.7,7.3-.4,11.3,1.8Z"/><path d="M565,551c4.4-1.7,8.5-.8,12.8.7s13.6,5.9,13.2,7.8c-4.2,8.9-27.1-7-26-8.5Z"/><path d="M1017,544l-20,11.5c-5,2.4-9.7,0-15,.5l17.5-9,17.5-3Z"/><path d="M830,585c-.3,1.5-1.8,1.9-3,2.5-7.3,3.5-19.5,7.8-26,1,9.6-5.2,18.5-6.4,29-3.5Z"/><path d="M950,564c.4,2.3-3.9,4.1-5.5,5-7.3,4.2-14.1,6.8-22.5,4-2.4-3.2,24.6-11.7,28-9Z"/><path d="M532.7,537.2c1.1,1.1,1.5,3.4-.3,3.7-6.7,1.3-20.9-8.9-25.5-14,4.5-.5,8.9.7,13,2.5s11.9,6.9,12.7,7.7Z"/><path d="M477,513c-9.8,1.5-16.4-5.6-22.9-11.6s-2.5-1.5-2.1-3.4c3.9-3.4,22.5,11,25,15Z"/><path d="M678,572c-2.3.2-4.4,1.8-6.6,2-4.2.3-16.5-4.9-17.4-10,.8-.7,19.2,3.8,21.6,4.9s2.8.9,2.4,3Z"/><path d="M717.4,578.6c-.6-.4-1.9-2.7-3.3-3.1,2.7-4.2,23.9.5,24,3-5.4,4.3-15.1,3.6-20.6.1Z"/><path d="M857,573c-1.6,5.5-20.8,9-23,6,5.1-6.3,15.5-8.1,23-6Z"/><path d="M792.5,577c1.2.2,5.1,1.4,5.5,3-8.7,2.9-19.4,5.1-26-3,6.4.6,14.3-.9,20.5,0Z"/><path d="M955,555l19.6-7.9c4.1.4,4.5,1.9,1.1,4.2-6,3.9-13.7,6.4-20.7,3.8Z"/><path d="M894,569c.3-1.7,2-1.8,3.2-2.3,2-.8,19.9-6.3,19.8-2.2-5.7,4.9-16,8.1-23,4.5Z"/><path d="M598.3,553.7c-.5-.6-1-1.9-1.3-2.7,1.7-1.2,16.2,3.5,18.8,4.7,7.6,3.4,0,4.9-5.1,4s-10.8-4.3-12.4-6.1Z"/><path d="M560,541c-7.4,2.5-15.7-4.3-20-10,3.2-1.4,22.3,6.8,20,10Z"/><path d="M1261,413c1.1.9-2.7,4.3-3.5,5-5.6,5.4-12.9,11.1-20.5,13,2.8-2.9,21-20.7,24-18Z"/><path d="M1041,525c-6.2,6.9-15.5,12.4-25,10l15-7.5,10-2.5Z"/><path d="M1102,497c3.1,3.3-13.1,12.4-15.7,12.8s-3.5.4-4.2-1.3,8.1-5.1,9.3-6.7l10.7-4.8Z"/><path d="M503,517c-8.7.8-14.5-6.4-20-12,7.4,1.1,16.6,5.1,20,12Z"/><path d="M447,487c-8.8-.3-14.7-8-20-14,7.4,1.8,15.8,7.6,20,14Z"/><path d="M1164,468c0,.1-1.6.2-2.5,1-3.7,3.5-7.5,7.3-12.8,8.3s-2.2,1.5-3.7-.8l17.5-11.5c.8.6,2.1,2.1,1.5,3Z"/><path d="M760.5,569c.5,0,2.8,1.1,3.5,1.5l-7.3,3.2-11.7-4.7c4.9.5,10.8-.6,15.5,0Z"/><path d="M705,566c-2.4,4.1-7.9,2-11.5,1l-8.4-4,20,3Z"/><path d="M646,556c1.5,1.5-.1,1.8-1.5,2-4.8.6-7.9-.9-11.8-3.2s-4-2.5-4.7-3.8l18,5Z"/><path d="M886,563c-7.3.9-11,6.4-19,3,.2-1.2,3.9-2.1,5-2.4,3.3-.9,7.8-1.8,11.2-1.9s2.2-.8,2.8,1.4Z"/><path d="M945,549c-3.7,4-8.4,7-14,6,1.1-4.9,10-5.8,14-6Z"/><path d="M820.5,569c.5,0,2.8,1.1,3.5,1.5-1,2.4-9.9,1.6-12.3,1.3s-5.5-1.3-5.7-2.8c4.6.4,10.1-.6,14.5,0Z"/><path d="M587,542c-5.2,0-11.2-2.4-14-7,4.2,1.4,12.7,1.9,14,7Z"/><path d="M532,521c-6.4-.7-12.7-4.3-17-9,6,1.8,12.5,4.5,17,9Z"/><path d="M1005,532c-4.1,2.7-7.8,4.7-13,4,2.6-4,8.8-3.4,12.5-6l.5,2Z"/><path d="M1225,429c1.8,2-11.1,10.8-14,10l14-10Z"/><path d="M472,490c1,1,.1,2.1-1.5,2-4.6-.2-6.2-4.3-9.5-7l11,5Z"/></g></svg>