<?xml version="1.0" encoding="UTF-8"?>
<svg id="Layer_1" xmlns="http://www.w3.org/2000/svg" version="1.1" viewBox="0 0 24 24">
  <!-- Generator: Adobe Illustrator 29.7.1, SVG Export Plug-In . SVG Version: 2.1.1 Build 8)  -->
  <path d="M12,6.6l2-2.5s3.4,0,6.9,1.7c-.9,1.3-2.6,2-2.6,2-.1-1.2-.9-1.4-3.5-1.4l-2.7,15.4-2.7-15.4c-2.6,0-3.4.3-3.5,1.5,0,0-1.7-.6-2.6-2,3.4-1.6,6.9-1.7,6.9-1.7l2,2.4h0s0,0,0,0h0ZM12,3.5c2.8,0,5.9.4,9.2,1.8.4-.8.5-1.1.5-1.1-3.5-1.4-6.9-1.9-9.7-1.9-2.9,0-6.2.5-9.7,1.9,0,0,.2.4.5,1.1,3.2-1.4,6.4-1.9,9.2-1.9h0Z"/>
</svg>