<?xml version="1.0" encoding="UTF-8"?><svg id="b" xmlns="http://www.w3.org/2000/svg" width="224" height="144.3" viewBox="0 0 224 144.3"><g id="c"><polygon points="0 143.7 22.6 143.7 22.6 138.5 5.9 138.5 5.9 130.6 21.2 130.6 21.2 125.5 5.9 125.5 5.9 118.3 22.7 118.3 22.7 113.1 0 113.1 0 143.7"/><rect x="26" y="113.1" width="5.5" height="30.6"/><path d="M51.7,122.5c-1.7-1-3.6-1.5-5.8-1.5s-4.2.5-5.8,1.4c-1.7,1-3,2.3-3.9,4.1-.9,1.8-1.4,3.8-1.4,6.1s.5,4.4,1.4,6.1c.9,1.7,2.2,3.1,3.9,4,1.7.9,3.6,1.4,5.8,1.4s3.4-.3,4.9-.9c1.4-.6,2.6-1.5,3.5-2.6.9-1.1,1.6-2.4,2-3.9h-5.3c-.2.7-.6,1.3-1,1.8-.4.5-1,.9-1.7,1.1-.7.3-1.5.4-2.3.4s-2.3-.2-3.1-.7-1.5-1.2-2-2.2c-.4-.8-.6-1.8-.7-2.9h16.6c0-.3,0-.6,0-.9,0-.3,0-.5,0-.8,0-2.2-.4-4.2-1.3-6-.9-1.8-2.1-3.1-3.8-4.1ZM42.9,126c.8-.5,1.8-.8,3-.8s2.2.3,3,.8c.8.5,1.5,1.3,1.9,2.2.3.7.5,1.5.6,2.3h-11c.1-.8.3-1.6.6-2.2.5-1,1.1-1.8,2-2.3Z"/><path d="M70,133.7c-.4,1.3-.8,2.7-1.2,4.1,0,.2-.1.5-.2.7,0-.3-.2-.6-.2-.9-.4-1.3-.8-2.6-1.2-3.9l-4.2-12.2h-5.9l8.4,22.2h6l8.4-22.2h-5.7l-4.2,12.2Z"/><path d="M101.7,139.7c-.3,0-.5,0-.7-.1-.2,0-.3-.2-.4-.4,0-.2-.1-.4-.1-.7v-10.8c0-1.4-.3-2.6-1-3.6s-1.7-1.8-3.1-2.3c-1.4-.5-3.2-.8-5.4-.8s-4.2.3-5.6.9-2.5,1.5-3.2,2.6c-.7,1.1-1.1,2.5-1.2,4.1h5.5c0-.9.2-1.6.6-2.1s.8-.9,1.4-1.1,1.5-.3,2.5-.3,1.8,0,2.4.3c.6.2,1,.5,1.3.9s.4.9.4,1.6h0s0,0,0,0c0,.5-.1,1-.3,1.3-.2.3-.6.6-1.1.8-.5.2-1.1.3-1.8.4l-3.5.4c-2,.2-3.6.6-4.8,1.2-1.2.6-2.1,1.4-2.7,2.3s-.8,2-.8,3.3.3,2.6,1,3.6c.7,1,1.6,1.7,2.8,2.2s2.6.8,4.2.8,2.9-.3,4-.8c1.2-.5,2.1-1.2,2.8-2.2.2-.3.4-.5.5-.8,0,.4.2.8.3,1.2.3.8.9,1.3,1.6,1.7.7.4,1.7.5,2.9.5s.8,0,1.3,0,.8,0,1.2-.1v-4h-1ZM94.2,138c-.5.8-1.2,1.4-2.1,1.8-.9.4-1.8.6-2.8.6s-1.5-.1-2.1-.4c-.6-.2-1-.6-1.2-1-.3-.5-.4-1-.4-1.6s.1-1.1.4-1.6c.2-.4.7-.8,1.3-1.1.6-.3,1.4-.5,2.4-.6l2.8-.3c1-.1,1.7-.3,2.2-.7.1,0,.2-.2.3-.2v2.1c0,1.2-.3,2.2-.8,3Z"/><path d="M112,120v-5.3h-5.5v6.8h-3.5v4.3h3.5v12.5c0,1.3.3,2.4.8,3.2.5.8,1.3,1.4,2.3,1.8,1,.4,2.3.6,3.9.6s.8,0,1.3,0,.9,0,1.4,0c0,0,0,0,.1,0,0,0,.1,0,.1,0v-4.3h-1.9c-.6,0-1.1,0-1.5-.2-.4-.1-.6-.3-.8-.6s-.3-.7-.3-1.1v-11.7h4.4v-4.3h-4.4v-1.5Z"/><rect x="119.6" y="114.1" width="5.5" height="5.1"/><rect x="119.6" y="121.6" width="5.5" height="22.2"/><path d="M145.8,122.5c-1.7-1-3.7-1.4-5.9-1.4s-4.2.5-5.9,1.4c-1.7,1-3.1,2.3-4,4.1-1,1.8-1.4,3.8-1.4,6.1s.5,4.4,1.4,6.1c1,1.7,2.3,3.1,4,4,1.7,1,3.7,1.4,5.9,1.4s4.2-.5,5.9-1.4c1.7-1,3.1-2.3,4-4.1,1-1.8,1.4-3.8,1.4-6.1s-.5-4.4-1.4-6.1c-1-1.8-2.3-3.1-4-4.1ZM145,136.5c-.5,1.1-1.2,1.9-2,2.4-.9.5-1.9.8-3,.8s-2.2-.3-3.1-.8c-.9-.5-1.5-1.3-2-2.4-.5-1.1-.7-2.3-.7-3.9s.2-2.8.7-3.9,1.2-1.9,2-2.4c.9-.5,1.9-.8,3.1-.8s2.2.3,3,.8c.9.5,1.5,1.3,2,2.4s.7,2.4.7,3.9-.2,2.8-.7,3.9Z"/><path d="M171.1,121.9c-1.1-.6-2.5-.9-4.1-.9s-2.3.2-3.4.7c-1,.4-1.9,1.1-2.6,1.9-.4.4-.7.8-1,1.3v-3.3h-5.3v22.2h5.5v-12.4c0-1.2.2-2.2.7-3.1s1.1-1.4,1.8-1.8c.7-.4,1.5-.6,2.4-.6s1.6.2,2.2.5c.6.3,1.1.8,1.4,1.4s.5,1.4.5,2.3v13.8h5.5v-14.5c0-1.8-.3-3.3-.9-4.5-.6-1.2-1.5-2.1-2.7-2.7Z"/><path d="M197.4,113.1l-11.5,30.6h6l2.5-7h13l2.6,7h6.2l-11.8-30.6h-6.9ZM196.2,131.9l2.5-6.8c.4-1.1.7-2.1,1.1-3.2.4-1,.7-2,1-2.9,0-.2.1-.4.2-.6,0,.2.1.4.2.6.3.9.7,1.9,1,2.9.4,1,.7,2.1,1.1,3.1l2.5,6.8h-9.5Z"/><rect x="218.1" y="113.1" width="5.9" height="30.6"/><path d="M195.3,60c-2.7,0-5-2.2-5-5v-15.2c0-4.2-3.4-7.6-7.6-7.6h-17.2c-2.7,0-5-2.2-5-5V5c0-2.7,2.2-5,5-5h52.1c2.7,0,5,2.2,5,5v50c0,2.7-2.2,5-5,5h-22.3Z"/></g></svg>