<?xml version="1.0" encoding="UTF-8"?><svg id="b" xmlns="http://www.w3.org/2000/svg" width="543.2" height="95.5" viewBox="0 0 543.2 95.5"><g id="c"><polygon points="0 94.3 45.1 94.3 45.1 84 11.8 84 11.8 68.1 42.3 68.1 42.3 57.9 11.8 57.9 11.8 43.5 45.4 43.5 45.4 33.2 0 33.2 0 94.3"/><rect x="51.9" y="33.2" width="11" height="61.2"/><path d="M103.4,51.9c-3.3-2-7.2-3-11.7-3s-8.3,1-11.6,2.9c-3.3,1.9-5.9,4.6-7.7,8.2-1.8,3.5-2.7,7.6-2.7,12.2s.9,8.8,2.8,12.3c1.8,3.5,4.4,6.2,7.8,8,3.4,1.9,7.2,2.8,11.7,2.8s6.9-.6,9.7-1.8c2.8-1.2,5.2-2.9,7.1-5.2,1.9-2.2,3.2-4.8,3.9-7.8h-10.5c-.4,1.4-1.1,2.5-2,3.5-.9,1-2,1.7-3.4,2.2-1.4.5-2.9.8-4.6.8s-4.5-.5-6.3-1.5-3.1-2.5-4-4.5c-.7-1.6-1.2-3.5-1.3-5.7h33.1c0-.6,0-1.2,0-1.7,0-.5,0-1,0-1.5,0-4.5-.9-8.5-2.6-12-1.8-3.5-4.3-6.2-7.6-8.2ZM85.7,58.9c1.7-1,3.7-1.5,6-1.5s4.4.5,6,1.6c1.7,1.1,2.9,2.5,3.8,4.4.6,1.4,1,2.9,1.2,4.6h-22c.2-1.7.6-3.2,1.2-4.5.9-2.1,2.2-3.6,3.9-4.6Z"/><path d="M140.1,74.4c-.9,2.7-1.7,5.4-2.5,8.1-.1.5-.3,1-.4,1.4-.2-.6-.3-1.2-.5-1.7-.7-2.6-1.5-5.2-2.4-7.8l-8.4-24.4h-11.8l16.9,44.3h12.1l16.8-44.3h-11.5l-8.3,24.4Z"/><path d="M203.4,86.4c-.6,0-1.1,0-1.5-.3-.4-.2-.7-.5-.8-.8-.2-.4-.3-.8-.3-1.4v-21.6c0-2.8-.6-5.1-1.9-7.1s-3.3-3.5-6.1-4.6c-2.8-1.1-6.4-1.6-10.8-1.6s-8.4.6-11.3,1.8-5.1,2.9-6.4,5.2c-1.4,2.3-2.2,5-2.3,8.3h10.9c.1-1.8.5-3.2,1.1-4.2s1.6-1.8,2.9-2.2,2.9-.7,5-.7,3.6.2,4.7.6c1.2.4,2,1,2.6,1.8s.8,1.9.8,3.1h0s0,0,0,0c0,1.1-.2,2-.7,2.7-.5.7-1.2,1.2-2.1,1.6-.9.4-2.1.6-3.5.8l-6.9.7c-4,.4-7.2,1.2-9.7,2.5-2.5,1.2-4.2,2.8-5.4,4.7s-1.7,4.1-1.7,6.6.7,5.3,2,7.3c1.3,2,3.2,3.5,5.6,4.5s5.2,1.5,8.4,1.5,5.7-.5,8-1.5c2.3-1,4.2-2.5,5.7-4.4.4-.5.7-1.1,1.1-1.6.2.9.4,1.6.7,2.3.7,1.5,1.7,2.7,3.2,3.4,1.5.7,3.4,1.1,5.8,1.1s1.7,0,2.5,0,1.7-.2,2.5-.3v-8h-2ZM188.4,82.9c-1,1.6-2.4,2.8-4.1,3.6-1.7.8-3.6,1.2-5.6,1.2s-3.1-.2-4.2-.7c-1.1-.5-1.9-1.2-2.5-2.1-.5-.9-.8-2-.8-3.2s.2-2.3.7-3.1c.5-.9,1.3-1.6,2.5-2.1,1.2-.6,2.8-.9,4.7-1.2l5.6-.7c1.9-.2,3.4-.7,4.5-1.3.2-.1.5-.3.7-.5v4.3c0,2.4-.5,4.3-1.6,5.9Z"/><path d="M224,47v-10.5h-11v13.6h-7v8.6h7v25c0,2.6.5,4.8,1.5,6.4,1,1.6,2.5,2.8,4.6,3.5,2,.7,4.7,1.1,7.8,1.1s1.6,0,2.5,0,1.8,0,2.7-.2c0,0,.2,0,.3,0,0,0,.2,0,.3,0v-8.5h-3.7c-1.3,0-2.2-.1-3-.4-.7-.2-1.2-.6-1.6-1.2s-.5-1.3-.5-2.3v-23.3h8.8v-8.6h-8.8v-3Z"/><rect x="239.1" y="35.2" width="11" height="10.2"/><rect x="239.1" y="50" width="11" height="44.3"/><path d="M291.6,51.9c-3.4-1.9-7.4-2.9-11.9-2.9s-8.4,1-11.9,2.9c-3.5,1.9-6.1,4.6-8.1,8.1-1.9,3.5-2.9,7.6-2.9,12.2s1,8.7,2.9,12.2c1.9,3.5,4.6,6.2,8.1,8.1,3.5,1.9,7.4,2.9,11.9,2.9s8.4-1,11.9-2.9c3.4-1.9,6.1-4.6,8.1-8.1,1.9-3.5,2.9-7.6,2.9-12.2s-1-8.7-2.9-12.2c-1.9-3.5-4.6-6.2-8.1-8.1ZM289.9,80c-1,2.1-2.3,3.7-4,4.8-1.7,1.1-3.8,1.6-6.1,1.6s-4.4-.5-6.1-1.6c-1.7-1.1-3.1-2.7-4-4.8-1-2.1-1.4-4.7-1.4-7.7s.5-5.7,1.4-7.8,2.3-3.7,4-4.8c1.7-1.1,3.8-1.6,6.1-1.6s4.4.5,6.1,1.6c1.7,1.1,3.1,2.7,4,4.8s1.4,4.7,1.4,7.8-.5,5.6-1.5,7.7Z"/><path d="M342.2,50.8c-2.3-1.2-5.1-1.8-8.3-1.8s-4.7.4-6.7,1.3c-2,.9-3.8,2.1-5.3,3.7-.7.8-1.4,1.7-2,2.6v-6.6h-10.6v44.3h11v-24.8c0-2.4.5-4.5,1.4-6.2s2.2-2.9,3.7-3.7c1.5-.8,3.1-1.2,4.8-1.2s3.3.3,4.5.9c1.2.6,2.1,1.5,2.8,2.8s.9,2.8.9,4.6v27.5h11v-29.1c0-3.5-.6-6.5-1.9-9-1.2-2.4-3-4.3-5.3-5.5Z"/><path d="M394.8,33.2l-23,61.2h12l5.1-14h26.1l5.2,14h12.3l-23.7-61.2h-13.9ZM392.3,70.6l4.9-13.6c.7-2.2,1.5-4.3,2.2-6.3.7-2,1.3-4,1.9-5.8.1-.4.2-.8.4-1.2.1.4.3.9.4,1.3.6,1.8,1.3,3.8,2,5.8.7,2,1.4,4.1,2.2,6.3l5,13.5h-19Z"/><rect x="436.2" y="33.2" width="11.8" height="61.2"/><path d="M515.9,60c-2.7,0-5-2.2-5-5v-15.2c0-4.2-3.4-7.6-7.6-7.6h-17.2c-2.7,0-5-2.2-5-5V5c0-2.7,2.2-5,5-5h52.1c2.7,0,5,2.2,5,5v50c0,2.7-2.2,5-5,5h-22.3Z"/></g></svg>