<?xml version="1.0" encoding="UTF-8"?>
<svg id="Layer_1" xmlns="http://www.w3.org/2000/svg" version="1.1" viewBox="0 0 400 400">
  <!-- Generator: Adobe Illustrator 29.7.1, SVG Export Plug-In . SVG Version: 2.1.1 Build 8)  -->
  <defs>
    <style>
      .st0 {
        fill-rule: evenodd;
      }
    </style>
  </defs>
  <path class="st0" d="M230.5,273.8c-23.2,0-42.9-18.3-42.9-42.9s16.6-44.7,43.3-44.7,42.5,21.6,42.5,44.3-16.7,43.3-42.9,43.3ZM161.9,192.5l-8.2-26.9c-4.9-14.2-6.4-22.3-20.2-36.9-4.7-5-22.6-16-20.4-13.6,22.7,24.5,34.3,54.2,38.8,62.4-4.1-5-8.9-9.5-14.4-15.1-4.7-4.7-9.6-9-14.2-11.9-3.1-1.9-4.8-2.9-7.9-4.5-14-7.3-27.5-11.7-32.7-13-6.4-1.6-12.6-2-12.6-2,0,0,20.3,17.1,28.9,28,8.7,10.9,17.5,20.6,27.3,24.6,9.8,4,13.2,5.1,20.9,6.3,6.6,1,14.7,2.5,14.7,2.5ZM232.3,168.7c-21.4,0-32.9,7.4-41,15.3l-2.2,2.3v-71.8h-18.5v117.5c0,36.2,27.9,58.7,59.8,58.7s61.9-27.1,61.9-61.9-27.8-60.1-60-60.1ZM380,200c0,99.4-80.6,180-180,180S20,299.4,20,200,100.6,20,200,20s180,80.6,180,180Z"/>
</svg>