<?xml version="1.0" encoding="UTF-8"?>
<svg id="Layer_1" xmlns="http://www.w3.org/2000/svg" version="1.1" viewBox="0 0 400 400">
  <!-- Generator: Adobe Illustrator 29.7.1, SVG Export Plug-In . SVG Version: 2.1.1 Build 8)  -->
  <path d="M400,70.3v259.4c0,38.8-31.5,70.3-70.3,70.3H70.3c-38.8,0-70.3-31.5-70.3-70.3V70.3C0,31.5,31.5,0,70.3,0h259.4c38.8,0,70.3,31.5,70.3,70.3ZM146.5,102c-12.4-1.3-26.9,1-39.5,0v40h19v185h47v-80c23.9,26.4,71.2,22.5,96.5,0,36.5-32.4,35.4-105.4-4.6-134.4-28.3-20.6-74.5-18.8-95.4,11.4-2.9-12.7-9.5-20.6-23-22Z"/>
  <path d="M205.8,138.3c50.2-4.3,57.6,76.1,13.2,87.2-55.9,14-64.3-82.9-13.2-87.2Z"/>
</svg>