<?xml version="1.0" encoding="UTF-8"?>
<svg id="Layer_1" xmlns="http://www.w3.org/2000/svg" version="1.1" viewBox="0 0 630 630">
  <!-- Generator: Adobe Illustrator 29.7.1, SVG Export Plug-In . SVG Version: 2.1.1 Build 8)  -->
  <path d="M302.7,624v-282.5c0-1.9-.2-3.9-.6-6.2h0c-2.5-12.9-12.8-23.2-25.6-25.8-1.8-.4-3.8-.6-6.3-.6h-59.5v-125.5c0-10.8,8.7-19.5,19.5-19.5h167c10.8,0,19.5,8.7,19.5,19.5v440.5h-114Z"/>
  <path d="M526.2,0h-167c-14.4,0-26,11.6-26,26v131h64c1.7,0,3.5.2,5.1.5h20.9v20.9c.3,1.7.5,3.4.5,5.1v446.5h102.5c14.4,0,26-11.6,26-26V26c0-14.4-11.6-26-26-26Z"/>
  <path d="M423.2,178.4v-20.9h-20.9c10.5,2.1,18.8,10.4,20.9,20.9Z"/>
  <path d="M270.2,316H103.2c-14.1,0-25.5,11.4-25.5,25.5v263c0,14.1,11.4,25.5,25.5,25.5h192.5v-288.5c0-14.1-11.4-25.5-25.5-25.5Z"/>
</svg>