<?xml version="1.0" encoding="UTF-8"?>
<svg id="Layer_1" xmlns="http://www.w3.org/2000/svg" version="1.1" viewBox="0 0 630 630">
  <!-- Generator: Adobe Illustrator 29.7.1, SVG Export Plug-In . SVG Version: 2.1.1 Build 8)  -->
  <path d="M298.7,628v-286.5c0-1.8-.2-3.7-.5-5.5-2.2-11.2-11.2-20.3-22.5-22.5-1.8-.4-3.7-.5-5.5-.5h-63.5v-129.5c0-13,10.5-23.5,23.5-23.5h167c13,0,23.5,10.5,23.5,23.5v444.5h-122Z"/>
  <path d="M526.2,0h-167c-14.4,0-26,11.6-26,26v131h64c1.7,0,3.5.2,5.1.5h20.9v20.9c.3,1.7.5,3.4.5,5.1v446.5h102.5c14.4,0,26-11.6,26-26V26c0-14.4-11.6-26-26-26Z"/>
  <path d="M423.2,178.4v-20.9h-20.9c10.5,2.1,18.8,10.4,20.9,20.9Z"/>
  <path d="M270.2,316H103.2c-14.1,0-25.5,11.4-25.5,25.5v263c0,14.1,11.4,25.5,25.5,25.5h192.5v-288.5c0-14.1-11.4-25.5-25.5-25.5Z"/>
</svg>