<?xml version="1.0" encoding="UTF-8"?>
<svg id="Layer_1" xmlns="http://www.w3.org/2000/svg" xmlns:rdf="http://www.w3.org/1999/02/22-rdf-syntax-ns#" xmlns:dc="http://purl.org/dc/elements/1.1/" xmlns:cc="http://creativecommons.org/ns#" version="1.1" viewBox="0 0 273 191">
  <!-- Generator: Adobe Illustrator 29.7.1, SVG Export Plug-In . SVG Version: 2.1.1 Build 8)  -->
  <defs>
    <style>
      .st0 {
        fill-rule: evenodd;
      }
    </style>
  </defs>
  <path class="st0" d="M213.2,26.4c-8.2-.1-16.2,1.7-23.7,5-8.4-14.9-28.5-24.9-42-24.9s-25.7,5.7-34.5,14.8h0C103.4,8.7,100.2.6,71,.6S18.1,24.2,18.1,53.4s1.5,14.4,4.4,21C8.9,82.4-.2,88.9-.2,114.2s20.3,45.9,45.4,46c3.1,0,6.2-.4,9.3-1,6.9,18.7,25.7,32,45.9,32s37.6-12.3,45-29.8c5.9,2.8,12.3,4.3,18.8,4.3,15.6,0,29.2-8.4,36.8-20.9-9.7,0-1.9-.3.4-.7,0-.1.1-.2.2-.3.7.1.4.2-.2.3-.1.2-.3.5-.4.7,2.6,0,6.6,0,12.2,0,32.4,0,58.7-26.5,58.7-59.2s-26.3-59.2-58.7-59.2ZM49.1,102.7c-2.7,0-5.3-.4-8.1-1.9-.5-.3-1-.5-1.5-.9,0-.1-.3-.2,0-.6l-.3-.3,1.1-3.1c0-.6.5-.3.7-.3.3.2.5.4.9.6,3.3,2.1,4.8,2.1,7.2,2.1s3.9-1.3,3.9-3.1-2.3-2.6-5-3.4l-.6-.2c-3.7-1-7.6-2.5-7.6-7.3s3.6-7.5,8.7-7.5h.6c3,0,5.9.9,8,2.2.3,0,.4.3.3.6,0,.3-1,2.8-1.1,3.1-.2.5-.7.2-.7.2-1.8-1-4.9-1.8-7.1-1.8s-3.6,1.1-3.6,2.8,2.4,2.6,5.2,3.5l.5.2c3.7,1.2,7.6,2.8,7.6,7.3s-3.4,7.8-9,7.8ZM81.6,100.6s0,.5-.4.5c0,0-.6.2-1.1.3-1.3.3-2.7.6-4,.8-1.6.3-3.2.4-4.8.4s-3,0-4.2-.4c-1.2-.3-2.3-.8-3.2-1.4-.9-.7-1.6-1.5-2.1-2.5s-.7-2.3-.7-3.6.2-2.6.8-3.6c.6-1,1.3-1.9,2.3-2.6s2.1-1.2,3.3-1.5,2.9-.5,3.9-.5h2.7c0,0,1.3.2,2.6.4v-.7c0-2.1-.4-3.1-1.3-3.8-.9-.7-2.2-1-3.9-1,0,0-3.9-.1-6.9,1.6-.2,0-.3,0-.3,0,0,0-.4.1-.5-.3l-1.1-3c-.2-.4,0-.6,0-.6,1.5-1.1,4.9-1.8,4.9-1.8,1.1-.2,1.1-.4,4.2-.4s5.5.8,7.2,2.2c1.6,1.5,2.5,3.8,2.5,7v14.4ZM91.7,101.7c0,.3-.2.5-.5.5h-4.2c-.3,0-.5-.2-.5-.5v-33.7c0-.3.2-.5.5-.5h4.2c.3,0,.5.2.5.5v33.7ZM118,90.6c0,.4-.5.4-.5.4h-15.8c0,2.4.6,4,1.8,5.2,1.1,1.2,3,1.9,5.4,1.9,3.8,0,5.4-.8,6.5-1.2,0,0,.4,0,.6.3l1,2.9c.2.5.1.8,0,.8-.9.6-3.3,1.6-7.9,1.6s-4.1-.3-5.7-.9c-1.6-.6-3-1.5-4-2.6-1.1-1.1-1.8-2.5-2.3-4s-.7-3.2-.7-5,.2-3.4.7-5c.4-1.6,1.1-2.9,2.1-4.1.9-1.2,2.2-2.1,3.6-2.8,1.4-.7,3.2-1,5.2-1s3.1.3,4.5.9c1,.4,2,1.2,3,2.3.6.7,1.6,2.2,2,3.7v-.2c1.1,3.6.6,6.6.6,6.8ZM130.9,102.7c-2.7,0-5.3-.4-8.1-1.9-.6-.3-1.1-.5-1.6-.9-.1-.1-.3-.2-.1-.6v-.3c0,0,1-3.1,1-3.1,0-.5.6-.3.7-.3.3.2.5.4.9.6,3.3,2.1,4.8,2.1,7.2,2.1s3.9-1.3,3.9-3.1-2.3-2.6-5-3.4l-.6-.2c-3.7-1-7.6-2.5-7.6-7.3s3.6-7.5,8.7-7.5h.6c3,0,5.9.9,8,2.2.3,0,.4.3.3.6,0,.3-1,2.8-1.1,3.1-.2.5-.7.2-.7.2-1.9-1-4.9-1.8-7.1-1.8s-3.6,1.1-3.6,2.8,2.4,2.6,5.2,3.5l.5.2c3.7,1.2,7.6,2.8,7.6,7.3s-3.5,7.8-9.1,7.8ZM158.4,81.4c0,.5-.5.5-.5.5h-5.2l-3.6,20.1c-.4,2.1-.9,3.9-1.4,5.3-.6,1.4-1.2,2.5-2.1,3.5-.8.9-1.8,1.6-2.9,2-1.1.4-2.4.6-3.9.6s-1.4,0-2.3-.2c-.6-.1-.9-.2-1.4-.4-.2,0-.3-.3-.2-.6,0-.3,1.1-2.9,1.2-3.2.2-.5.6-.3.6-.3.3,0,.5.3.9.3.4,0,.6,0,1.3,0s1.4,0,1.9-.3c.6-.2,1-.6,1.4-1.1.4-.5.8-1.2,1.1-2.2s.6-2.3.9-3.9l3.5-19.7h-3.5c-.5,0-.5-.2-.5-.5l.6-3.3c.1-.5.5-.5.5-.5h3.6l.2-1.1c.6-3.2,1.6-5.6,3.2-7.2,1.6-1.6,3.8-2.4,6.7-2.4s1.4,0,2.1.2c.6.1,1.1.2,1.6.4h-.1c.1,0,.4.2.3.6l-1.2,3.3c0,.2-.2.4-.7.2,0,0-.3,0-.8-.2-.4-.1-.8-.1-1.3-.1-.6,0-1.2,0-1.7.2-.5,0-.9.4-1.3.8s-.9,1-1.1,1.7c-.5,1.7-.8,3.5-.8,3.6h5c.5,0,.5.2.5.5l-.6,3.3ZM181.5,94.9c-.4,1.6-1.2,3-2.1,4.1-1,1.1-2.2,2.1-3.6,2.7-1.4.7-3.1,1-5,1s-3.6-.4-5-1c-1.4-.6-2.6-1.6-3.6-2.7-.9-1.2-1.6-2.5-2.1-4.1-.5-1.5-.7-3.2-.7-5s.2-3.5.7-5c.4-1.6,1.2-3,2.1-4.1,1-1.1,2.2-2,3.6-2.7,1.4-.7,3.1-1,5-1s3.6.3,5,1c1.5.6,2.6,1.6,3.6,2.7.9,1.2,1.6,2.5,2.1,4.1.5,1.5.7,3.2.7,5s-.2,3.5-.7,5ZM200.8,78.5c-.2.4-.9,2.6-1.2,3.3,0,.2-.3.4-.6.4,0,0-.9-.2-1.7-.2s-1.4,0-2.1.3c-.7.3-1.4.7-1.9,1.2-.6.5-1.1,1.3-1.4,2.3-.3.9-.5,2.5-.5,4.1v11.8c0,.3-.2.5-.5.5h-4.1c-.3,0-.5-.2-.5-.5v-23.5c0-.3.2-.5.5-.5h4c.3,0,.5.2.5.5v1.9c.6-.8,1.7-1.6,2.7-2,1-.5,2.1-.8,4.1-.7,1,0,2.3.3,2.6.4.2.1.2.4.2.6h-.1ZM220.5,101.5c-1.8.7-2.6,1.2-6.6,1.2s-7.1-1.2-9.2-3.5c-2.1-2.3-3.1-5.4-3.1-9.3s.3-3.5.8-5c.5-1.6,1.3-3,2.3-4.1,1-1.1,2.3-2,3.8-2.7s3.2-1,5.2-1,2.5,0,3.5.2c1.1.2,2.5.6,3.1.8.1,0,.4,0,.3.5-.4,1.3-.7,2.1-1.1,3.2-.1.5-.5.3-.5.3-1.5-.5-2.6-.7-4.9-.7s-4.1.8-5.2,2.3c-1.2,1.5-1.8,3.5-1.8,6.1s.7,5.1,2,6.4c1.2,1.3,3.1,2,5.3,2s1.8-.1,2.6-.2c.8-.1,1.5-.3,2.2-.6,0,0,.4-.2.6.3h-.2l1.1,3.2c0,.4-.2.6-.2.6ZM244.3,90.6c0,.4-.5.4-.5.4h-15.8c0,2.4.6,4,1.8,5.2,1.1,1.2,3,1.9,5.4,1.9,3.8,0,5.4-.8,6.5-1.2,0,0,.4,0,.6.3l1,2.9c.2.5,0,.8,0,.8-.9.6-3.3,1.6-7.9,1.6s-4.1-.3-5.7-.9c-1.6-.6-3-1.5-4-2.6-1.1-1.1-1.8-2.5-2.3-4s-.7-3.2-.7-5,.2-3.4.7-5c.4-1.6,1.1-2.9,2.1-4.1.9-1.2,2.2-2.1,3.6-2.8,1.4-.7,3.2-1,5.2-1s3.1.3,4.5.9c1,.4,2,1.2,3,2.3.6.7,1.6,2.2,2,3.7v-.2c1.1,3.6.6,6.6.6,6.8Z"/>
  <path class="st0" d="M170.9,81.4c-2.1,0-3.5.7-4.5,2.2s-1.5,3.6-1.5,6.3.5,4.8,1.5,6.3c.9,1.5,2.5,2.2,4.5,2.2s3.5-.7,4.5-2.2,1.5-3.6,1.5-6.3-.5-4.8-1.5-6.3c-.9-1.5-2.4-2.2-4.5-2.2Z"/>
  <path class="st0" d="M107.5,81.3c-2.1,0-3.5.8-4.5,2.3-.7.9-1.1,2.2-1.3,3.7h11.2c-.1-1.4-.4-2.7-1-3.7-1-1.5-2.3-2.3-4.4-2.3Z"/>
  <path class="st0" d="M233.8,81.3c-2.1,0-3.5.8-4.5,2.3-.7.9-1.1,2.2-1.3,3.7h11.2c-.1-1.4-.4-2.7-1-3.7-1-1.5-2.3-2.3-4.4-2.3Z"/>
  <path class="st0" d="M67.6,91.5c-.9.7-1.4,1.7-1.4,3.1s.2,1.6.5,2.1c.2.3.3.4.9.9h0c0,.1,1.4,1.2,4.6,1,2.3-.2,4.3-.6,4.3-.6v-7.2c-1.4-.3-2.9-.4-4.3-.4-3.2-.1-4.6,1.1-4.6,1.1Z"/>
</svg>