<?xml version="1.0" encoding="UTF-8"?>
<svg id="Layer_1" xmlns="http://www.w3.org/2000/svg" xmlns:xlink="http://www.w3.org/1999/xlink" xmlns:rdf="http://www.w3.org/1999/02/22-rdf-syntax-ns#" xmlns:dc="http://purl.org/dc/elements/1.1/" xmlns:cc="http://creativecommons.org/ns#" version="1.1" viewBox="0 0 273 191">
  <!-- Generator: Adobe Illustrator 29.7.1, SVG Export Plug-In . SVG Version: 2.1.1 Build 8)  -->
  <defs>
    <style>
      .st0 {
        mask: url(#mask);
      }

      .st1 {
        fill: #fffffe;
      }

      .st1, .st2, .st3 {
        fill-rule: evenodd;
      }

      .st2 {
        fill: #fff;
      }
    </style>
    <mask id="mask" x="-.2" y=".5" width="272.3" height="190.6" maskUnits="userSpaceOnUse">
      <g id="b">
        <path id="a" class="st2" d="M0,.5h272v190H0V.5Z"/>
      </g>
    </mask>
  </defs>
  <g class="st0">
    <path class="st3" d="M113,21.3c8.8-9.1,21-14.8,34.5-14.8s33.6,10,42,24.9c7.5-3.3,15.5-5.1,23.7-5,32.4,0,58.7,26.5,58.7,59.2s-26.3,59.2-58.7,59.2-7.8-.4-11.6-1.1c-7.4,13.1-21.4,22-37.4,22-6.5,0-12.9-1.5-18.8-4.3-7.4,17.5-24.8,29.8-45,29.8s-39-13.3-45.9-32c-3.1.6-6.2,1-9.3,1C20.1,160.1-.2,139.5-.2,114.2s9.1-31.8,22.7-39.8c-2.9-6.6-4.4-13.8-4.4-21C18.1,24.2,41.8.6,71,.6s32.4,8.1,42,20.8"/>
  </g>
  <path class="st1" d="M39.4,99.3c-.2.4,0,.5.1.6.5.4,1,.6,1.5.9,2.8,1.5,5.4,1.9,8.1,1.9,5.6,0,9-3,9-7.8h0c0-4.5-3.9-6.1-7.6-7.3l-.5-.2c-2.8-.9-5.2-1.7-5.2-3.5h0c0-1.7,1.4-2.8,3.6-2.8s5.3.8,7.1,1.8c0,0,.5.3.7-.2.1-.3,1-2.8,1.1-3.1.1-.3,0-.5-.3-.6-2.1-1.3-5-2.2-8-2.2h-.6c-5.1,0-8.7,3.1-8.7,7.5h0c0,4.8,3.9,6.3,7.6,7.3l.6.2c2.7.8,5,1.5,5,3.4h0c0,1.8-1.5,3.1-3.9,3.1s-3.9,0-7.2-2.1c-.4-.2-.6-.4-.9-.6-.2,0-.6-.3-.7.3l-1.1,3.1M121.1,99.3c-.2.4,0,.5.1.6.5.4,1,.6,1.6.9,2.8,1.5,5.4,1.9,8.1,1.9,5.6,0,9.1-3,9.1-7.8h0c0-4.5-3.9-6.1-7.6-7.3l-.5-.2c-2.8-.9-5.2-1.7-5.2-3.5h0c0-1.7,1.4-2.8,3.6-2.8s5.2.8,7.1,1.8c0,0,.5.3.7-.2.1-.3,1-2.8,1.1-3.1.1-.3,0-.5-.3-.6-2.1-1.3-5-2.2-8-2.2h-.6c-5.1,0-8.7,3.1-8.7,7.5h0c0,4.8,3.9,6.3,7.6,7.3l.6.2c2.7.8,5,1.5,5,3.4h0c0,1.8-1.5,3.1-3.9,3.1s-3.9,0-7.2-2.1c-.4-.2-.6-.4-.9-.6-.1,0-.6-.2-.7.3l-1.1,3.1M176.9,89.9c0,2.7-.5,4.8-1.5,6.3-1,1.5-2.5,2.2-4.5,2.2s-3.6-.7-4.5-2.2c-1-1.5-1.5-3.6-1.5-6.3s.5-4.8,1.5-6.3c1-1.5,2.4-2.2,4.5-2.2s3.6.7,4.5,2.2c1,1.5,1.5,3.6,1.5,6.3M181.5,84.9c-.5-1.6-1.2-2.9-2.1-4.1-1-1.1-2.1-2.1-3.6-2.7-1.4-.7-3.1-1-5-1s-3.6.3-5,1c-1.4.7-2.6,1.6-3.6,2.7-.9,1.1-1.7,2.5-2.1,4.1-.5,1.5-.7,3.2-.7,5s.2,3.5.7,5c.5,1.6,1.2,2.9,2.1,4.1,1,1.1,2.2,2.1,3.6,2.7,1.4.6,3.1,1,5,1s3.6-.3,5-1c1.4-.6,2.6-1.6,3.6-2.7.9-1.1,1.7-2.5,2.1-4.1.5-1.5.7-3.2.7-5s-.2-3.5-.7-5M219.8,97.7c-.2-.5-.6-.3-.6-.3-.7.3-1.4.5-2.2.6-.8.1-1.6.2-2.6.2-2.2,0-4.1-.7-5.3-2-1.3-1.3-2-3.5-2-6.4,0-2.6.6-4.6,1.8-6.1,1.1-1.5,2.9-2.3,5.2-2.3s3.4.2,4.9.7c0,0,.4.2.5-.3.4-1.1.7-1.9,1.1-3.2.1-.4-.2-.5-.3-.5-.6-.2-2-.6-3.1-.8-1-.2-2.2-.2-3.5-.2-2,0-3.7.3-5.2,1-1.5.7-2.8,1.6-3.8,2.7s-1.8,2.5-2.3,4.1c-.5,1.5-.8,3.2-.8,5,0,3.9,1,7,3.1,9.3,2.1,2.3,5.2,3.5,9.2,3.5s4.8-.5,6.6-1.2c0,0,.3-.2.2-.6l-1.1-3.2M228,87.3c.2-1.5.6-2.8,1.3-3.7,1-1.5,2.4-2.3,4.5-2.3s3.4.8,4.4,2.3c.6,1,.9,2.3,1,3.7h-11.3s0,0,0,0ZM243.7,84c-.4-1.5-1.4-3-2-3.7-1-1.1-2-1.9-3-2.3-1.4-.6-3-.9-4.5-.9-2,0-3.8.3-5.2,1-1.4.7-2.7,1.6-3.6,2.8-1,1.2-1.7,2.5-2.1,4.1-.5,1.6-.7,3.2-.7,5s.2,3.5.7,5c.5,1.5,1.2,2.9,2.3,4,1,1.1,2.4,2,4,2.6,1.6.6,3.5.9,5.7.9,4.6,0,7-1,7.9-1.6.2,0,.3-.3.1-.8l-1-2.9c-.2-.4-.6-.3-.6-.3-1.1.4-2.7,1.2-6.5,1.2-2.4,0-4.3-.7-5.4-1.9-1.2-1.2-1.7-2.8-1.8-5.2h15.8s.4,0,.5-.4c0-.2.5-3.2-.5-6.8h0ZM101.7,87.3c.2-1.5.6-2.8,1.3-3.7,1-1.5,2.4-2.3,4.5-2.3s3.4.8,4.4,2.3c.6,1,.9,2.3,1,3.7h-11.3s0,0,0,0ZM117.4,84c-.4-1.5-1.4-3-2-3.7-1-1.1-2-1.9-3-2.3-1.4-.6-3-.9-4.5-.9-2,0-3.8.3-5.2,1-1.4.7-2.7,1.6-3.6,2.8-1,1.2-1.7,2.5-2.1,4.1-.5,1.6-.7,3.2-.7,5s.2,3.5.7,5c.5,1.5,1.2,2.9,2.3,4,1,1.1,2.4,2,4,2.6,1.6.6,3.5.9,5.7.9,4.6,0,7-1,7.9-1.6.2,0,.3-.3.1-.8l-1-2.9c-.2-.4-.6-.3-.6-.3-1.1.4-2.7,1.2-6.5,1.2-2.4,0-4.3-.7-5.4-1.9-1.2-1.2-1.7-2.8-1.8-5.2h15.8s.4,0,.5-.4c0-.2.5-3.2-.5-6.8h0ZM67.6,97.6c-.6-.5-.7-.6-.9-.9-.3-.5-.5-1.2-.5-2.1,0-1.4.5-2.4,1.4-3.1,0,0,1.4-1.2,4.6-1.1,1.4,0,2.9.1,4.3.4v7.2h0s-2,.4-4.3.6c-3.2.2-4.6-.9-4.6-.9h0ZM73.9,86.5c-.6,0-1.5,0-2.5,0s-2.7.2-3.9.5c-1.2.3-2.3.8-3.3,1.5-1,.7-1.7,1.6-2.3,2.6-.6,1-.8,2.3-.8,3.6s.2,2.6.7,3.6c.5,1,1.2,1.8,2.1,2.5.9.6,2,1.1,3.2,1.4,1.2.3,2.6.4,4.2.4s3.2-.1,4.8-.4c1.3-.2,2.7-.5,4-.8.5-.1,1.1-.3,1.1-.3.4,0,.4-.5.4-.5v-14.4c0-3.2-.9-5.5-2.5-7-1.7-1.4-4.1-2.2-7.2-2.2s-3.1.2-4.2.4c0,0-3.4.7-4.9,1.8,0,0-.3.2-.1.6l1.1,3c.1.4.5.3.5.3,0,0,.1,0,.3-.1,3-1.7,6.9-1.6,6.9-1.6,1.7,0,3,.3,3.9,1,.9.7,1.3,1.7,1.3,3.8v.7c-1.3-.2-2.6-.3-2.6-.3h0ZM200.9,78.4c0-.2,0-.5-.2-.6,0,0,0,0,0,0-.3-.1-1.6-.4-2.6-.4-2-.1-3.1.2-4.1.7-1,.4-2.1,1.2-2.7,2v-1.9c0-.3-.2-.5-.5-.5h-4c-.3,0-.5.2-.5.5v23.5c0,.3.2.5.5.5h4.1c.3,0,.5-.2.5-.5v-11.8c0-1.6.2-3.2.5-4.1.3-1,.8-1.8,1.4-2.3.5-.5,1.2-.9,1.9-1.2.7-.2,1.4-.3,2.1-.3.8,0,1.7.2,1.7.2.3,0,.5-.2.6-.4.3-.7,1-2.9,1.2-3.3"/>
  <path class="st1" d="M162.2,67.5c-.5-.2-1-.3-1.6-.4-.7-.1-1.4-.2-2.1-.2-2.9,0-5.1.8-6.7,2.4-1.6,1.6-2.6,4-3.2,7.2l-.2,1.1h-3.6s-.4,0-.5.5l-.6,3.3c0,.3,0,.5.5.5h3.5l-3.5,19.7c-.3,1.6-.6,2.9-.9,3.9-.3,1-.7,1.7-1.1,2.2-.4.5-.8.9-1.4,1.1-.5.2-1.2.3-1.9.3s-.9,0-1.3-.1c-.4,0-.6-.2-.9-.3,0,0-.4-.2-.6.3-.1.3-1.1,2.9-1.2,3.2-.1.3,0,.6.2.6.5.2.8.3,1.4.4.9.2,1.6.2,2.3.2,1.5,0,2.8-.2,3.9-.6,1.1-.4,2.1-1.1,2.9-2,.9-1,1.5-2.1,2.1-3.5.5-1.4,1-3.2,1.4-5.3l3.6-20.1h5.2s.4,0,.5-.5l.6-3.3c0-.3,0-.5-.5-.5h-5c0-.1.3-1.9.8-3.6.2-.7.7-1.3,1.1-1.7.4-.4.8-.7,1.3-.8.5-.2,1.1-.3,1.7-.2.5,0,.9,0,1.3.1.5.1.7.2.8.2.5.2.6,0,.7-.2l1.2-3.3c.1-.4-.2-.5-.3-.6M91.7,101.7c0,.3-.2.5-.5.5h-4.2c-.3,0-.5-.2-.5-.5v-33.7c0-.3.2-.5.5-.5h4.2c.3,0,.5.2.5.5v33.7"/>
</svg>