<?xml version="1.0" encoding="UTF-8"?>
<svg id="Layer_1" xmlns="http://www.w3.org/2000/svg" version="1.1" viewBox="0 0 800 800">
  <!-- Generator: Adobe Illustrator 29.7.1, SVG Export Plug-In . SVG Version: 2.1.1 Build 8)  -->
  <path d="M380.7,98.7h-.8l-7.7,1.5c-17,2.1-33.7,6.8-49.9,14.3-16.2,7.5-30.6,17.4-42.9,29.8-21.1,19.1-35.8,42.6-44.1,70.4-4.6,15.5-6.7,31.7-6.2,48.7s3.6,33.3,9.3,48.7c8.8,23.2,22.2,43.3,40.2,60.3l10.1,9.3-64.2,104.4c-13.4-.5-25,1.3-34.8,5.4-15.5,6.7-27.1,17-34.8,30.9-3.6,7.7-5.9,15.7-7,24s-.5,16.5,1.5,24.8c4.1,15.5,12.6,27.9,25.5,37.1,7.7,5.2,16.2,8.9,25.5,11.2s18.6,2.8,27.9,1.5,18.2-4.5,26.7-9.7,15.6-11.6,21.3-19.3c6.2-8.8,9.9-18.8,11.2-30.2s-.1-21.9-4.3-31.7c-.5-2.6-2.3-6.2-5.4-10.8l-2.3-4.6,91.3-148.5c3.1-4.6,5.2-8.3,6.2-10.8l-7.7-2.3c-4.6-1-8-2.1-10.1-3.1-11.9-5.2-22.6-12.3-32.1-21.3-9.5-9-16.9-19.2-22.1-30.6-8.8-18.6-11.1-37.9-7-58,2.1-11.9,6.4-23,13.2-33.3s14.7-19.1,24-26.3c19.1-13.9,40.2-20.9,63.4-20.9,13.9-.5,27.5,1.9,40.6,7.4s24.6,13.3,34.4,23.6c8.8,8.3,15.6,18.2,20.5,29.8s7.6,23.3,8.1,35.2c0,8.8-1.5,19.6-4.6,32.5l54.2,14.7,6.2.8c7.2-22.2,9-44.4,5.4-66.5-2.1-17-7.1-33.4-15.1-49.1s-18.2-29.5-30.6-41.4c-21.7-21.7-48.2-36.1-79.7-43.3-3.1-1-7.7-2.1-13.9-3.1l-10.8-1.5h-28.6ZM394.6,194.6c-8.8,0-17.5,1.8-26.3,5.4s-16.6,8.9-23.6,15.9-12,15.1-15.1,24.4c-4.1,10.3-5.2,21.7-3.1,34,1.5,9.3,5.2,18.1,10.8,26.3s12.9,14.7,21.7,19.3c12.4,7.7,26.8,11.1,43.3,10.1,1.5,2.1,2.8,4.1,3.9,6.2l86.7,147.8c1.5,3.1,3.1,5.4,4.6,7,13.9-13.4,29-22.6,45.3-27.5s33-5.8,50.3-2.7,32.4,9.8,45.3,20.1c16.5,12.9,27.7,28.8,33.7,47.6s6.1,37.8.4,56.9c-4.1,14.4-11.5,27.3-22.1,38.7s-23.1,19.9-37.5,25.5c-16,6.7-33.1,8.9-51.5,6.6s-34.7-8.6-49.1-19c-2.1-1.5-5.4-4.1-10.1-7.7l-3.9-4.6c-2.1,1.5-4.9,4.1-8.5,7.7l-36.4,35.6c11.9,11.9,25.3,21.8,40.2,29.8s30.7,13.5,47.2,16.6l17,3.1h30.2l21.7-3.9c33-6.7,61.4-22.2,85.1-46.4,11.3-11.3,20.8-24.4,28.2-39.1s12.5-30,15.1-46c2.6-18.6,2.1-37-1.5-55.3s-10.1-34.9-19.3-49.9-20.6-28.1-34-39.5-28.1-20.4-44.1-27.1c-17.5-7.2-35.7-11.3-54.5-12.4s-37.3.8-55.3,5.4l-13.2,3.9-62.7-106c6.7-9.8,10.8-19.3,12.4-28.6,2.6-16.5-.8-32-10.1-46.4-8.3-12.9-19.6-21.9-34-27.1-8.8-3.1-17.8-4.6-27.1-4.6ZM176.4,398.9c-29.9,6.7-55.7,20.4-77.4,41-24.2,22.7-40,49.8-47.2,81.2l-3.1,18.6v28.6l1.5,8.5c1,6.7,2.1,11.9,3.1,15.5,3.6,16,9.9,31.2,19,45.6s20,27.1,32.9,37.9c25.8,21.1,55.4,33.8,89,37.9,19.6,2.1,39.2.9,58.8-3.5s37.7-11.7,54.2-22.1c27.3-17.5,47.5-41,60.3-70.4,3.6-8.8,7.2-20.4,10.8-34.8,3.1-.5,7.7-.5,13.9,0l96.7,1.5c7.2,0,12.4.3,15.5.8,5.7,10.3,12.1,18.3,19.3,24s15.3,9.8,24.4,12.4,18.2,3.6,27.5,3.1c14.4-1.5,27.3-6.7,38.7-15.5,13.9-10.8,22.2-24.8,24.8-41.8,1-8.8.6-17.3-1.2-25.5s-5.3-16-10.4-23.2c-8.3-11.3-18.8-19.6-31.7-24.8-8.8-3.6-17.9-5.3-27.5-5s-18.7,2.2-27.5,5.8c-14.4,6.2-25.5,15.7-33.3,28.6l-2.3,4.6c-7.2,0-18.1-.3-32.5-.8l-87.4-.8c-7.7-.5-18.8-.8-33.3-.8l-38.7-.8,2.3,13.2c4.1,22.2.8,43.1-10.1,62.7-7.2,13.9-17.5,25.5-30.9,34.8s-28.1,15-44.1,17c-18.1,3.1-36.1,1.2-54.2-5.8s-32.8-17.9-44.1-32.9c-14.4-18.1-21.4-38.4-20.9-61.1.5-19.1,6.4-36.9,17.8-53.4,6.7-9.8,15-18.1,24.8-24.8s20.4-11.6,31.7-14.7l7-2.3-16.2-58.8Z"/>
</svg>