<svg xmlns="http://www.w3.org/2000/svg"  viewBox="0 0 50 50" width="50px" height="50px"><path d="M25,2A23,23,0,1,0,48,25,23.02556,23.02556,0,0,0,25,2ZM13.46118,16.81909a12.16188,12.16188,0,0,1,23.07764,0,1.65779,1.65779,0,1,1-3.1463,1.0459,8.84637,8.84637,0,0,0-16.785,0,1.65779,1.65779,0,1,1-3.1463-1.0459Zm23.42249,6.98328q-1.96152,7.238-3.91883,14.47906a.84462.84462,0,0,1-.80224.69532c-1.01.03295-2.02216.008-3.03217.0133a.73187.73187,0,0,1-.80865-.55286c-.90418-3.31823-1.79041-6.64233-2.68616-9.96319a22.53308,22.53308,0,0,1-.59167-3.541,29.54389,29.54389,0,0,1-.53052,3.17267q-1.37548,5.12879-2.75849,10.25977c-.10363.554-.73675.66449-1.20776.62835-.93933-.017-1.87866.02179-2.817-.017a.68018.68018,0,0,1-.65228-.5752Q15.1004,31.19232,13.126,23.982a3.80616,3.80616,0,0,1-.04993-.63525.72683.72683,0,0,1,.56879-.33655c.72406-.007,1.45019-.02289,2.1737.01062a.75084.75084,0,0,1,.67408.67511c.71179,2.8946,1.41088,5.79346,2.1195,8.689.20783.89416.46088,1.77923.59644,2.68884.13983.81708.16748,1.64636.30035,2.465a31.07965,31.07965,0,0,1,.66187-3.48572Q21.5607,28.8692,22.95105,23.687a.85211.85211,0,0,1,.83673-.67407c.80591-.02027,1.6134-.00641,2.41931-.00641a.96037.96037,0,0,1,.9989.67517q1.03821,3.77893,2.06525,7.56464a45.76766,45.76766,0,0,1,1.20306,4.91406c.06531.46143.12915.924.22425,1.3822a69.14429,69.14429,0,0,1,1.49438-7.77148c.4599-2.05085.90949-4.10388,1.3747-6.15491a.83064.83064,0,0,1,.88836-.60761c.65174-.00366,1.30457-.02233,1.9552.01075A.56607.56607,0,0,1,36.88367,23.80237Z"/></svg>